<svg width="73" height="135" viewBox="0 0 73 135" fill="none" xmlns="http://www.w3.org/2000/svg">
<path d="M25 2V2C12.2975 2 2 12.2975 2 25V67.5M2 67.5V110C2 122.703 12.2975 133 25 133V133M2 67.5H12.5" stroke="black" stroke-width="3" stroke-linecap="round"/>
<path d="M25 133V133C37.7025 133 48 122.703 48 110V101" stroke="black" stroke-width="3" stroke-linecap="round"/>
<path d="M33.416 92.812C33.2387 92.812 33.0567 92.8073 32.87 92.798C32.6833 92.7887 32.4967 92.77 32.31 92.742C31.8993 92.6767 31.5167 92.574 31.162 92.434C30.8167 92.3033 30.5367 92.1307 30.322 91.916C30.1073 91.7013 30 91.4493 30 91.16C30 90.7213 30.126 90.3527 30.378 90.054C30.6393 89.7553 30.9707 89.522 31.372 89.354C31.7827 89.186 32.2073 89.088 32.646 89.06C32.7767 88.752 32.9307 88.4113 33.108 88.038C33.2853 87.6647 33.472 87.2913 33.668 86.918C33.864 86.5353 34.0507 86.19 34.228 85.882C34.4053 85.5647 34.5547 85.3173 34.676 85.14C34.816 84.9347 35.054 84.832 35.39 84.832C35.5207 84.832 35.586 84.8693 35.586 84.944C35.586 84.9907 35.5347 85.0747 35.432 85.196C35.0307 85.7373 34.6387 86.33 34.256 86.974C33.8733 87.618 33.4953 88.3133 33.122 89.06C35.642 89.116 37.3547 89.746 38.26 90.95C38.6707 90.6607 39.0393 90.334 39.366 89.97C39.702 89.606 39.968 89.214 40.164 88.794C40.36 88.374 40.458 87.9447 40.458 87.506C40.458 86.974 40.3133 86.5167 40.024 86.134C39.744 85.742 39.3613 85.4247 38.876 85.182C38.4 84.93 37.868 84.748 37.28 84.636C36.7013 84.5147 36.118 84.454 35.53 84.454C33.9527 84.454 32.5527 84.7993 31.33 85.49C31.2647 85.5273 31.204 85.546 31.148 85.546C31.0267 85.546 30.966 85.476 30.966 85.336C30.966 85.1213 31.1107 84.9393 31.4 84.79C31.6987 84.6313 32.0813 84.5007 32.548 84.398C33.024 84.286 33.5093 84.2067 34.004 84.16C34.508 84.104 34.9467 84.076 35.32 84.076C36.02 84.076 36.706 84.146 37.378 84.286C38.0593 84.426 38.6707 84.6407 39.212 84.93C39.7533 85.21 40.1873 85.5693 40.514 86.008C40.8407 86.4467 41.004 86.9693 41.004 87.576C41.004 88.08 40.8873 88.57 40.654 89.046C40.43 89.5127 40.1313 89.9467 39.758 90.348C39.3847 90.74 38.974 91.0853 38.526 91.384C38.5633 91.4587 38.582 91.524 38.582 91.58C38.582 91.7107 38.5353 91.776 38.442 91.776C38.4047 91.776 38.3393 91.7013 38.246 91.552C36.846 92.392 35.236 92.812 33.416 92.812ZM33.22 92.49C34.984 92.49 36.5613 92.0467 37.952 91.16C37.728 90.88 37.4293 90.6327 37.056 90.418C36.692 90.194 36.2907 90.0073 35.852 89.858C35.4133 89.7087 34.9747 89.5967 34.536 89.522C34.0973 89.438 33.6913 89.396 33.318 89.396C33.2527 89.396 33.192 89.396 33.136 89.396C33.08 89.396 33.0193 89.4007 32.954 89.41C32.394 90.5953 32.114 91.3933 32.114 91.804C32.114 91.8413 32.1187 91.8787 32.128 91.916C32.1467 91.9533 32.156 91.9907 32.156 92.028C32.156 92.1493 32.1 92.21 31.988 92.21C31.8387 92.21 31.764 92.084 31.764 91.832C31.764 91.412 32.002 90.6233 32.478 89.466C31.2367 89.6713 30.616 90.2453 30.616 91.188C30.616 91.552 30.8027 91.8367 31.176 92.042C31.5493 92.2473 31.9833 92.3873 32.478 92.462C32.6087 92.4713 32.7347 92.476 32.856 92.476C32.9773 92.4853 33.0987 92.49 33.22 92.49ZM42.5739 92.084C42.2659 92.084 41.9952 91.9953 41.7619 91.818C41.5285 91.6407 41.4119 91.342 41.4119 90.922C41.4119 90.67 41.4679 90.3993 41.5799 90.11C41.6919 89.8113 41.8412 89.5313 42.0279 89.27C42.2239 89.0087 42.4385 88.794 42.6719 88.626C42.9052 88.458 43.1432 88.374 43.3859 88.374C43.4792 88.374 43.5585 88.4067 43.6239 88.472C43.6985 88.5373 43.7359 88.6353 43.7359 88.766C43.7359 89.0553 43.5165 89.4053 43.0779 89.816C42.9005 89.984 42.7139 90.1333 42.5179 90.264C42.3312 90.3947 42.1585 90.488 41.9999 90.544C41.9625 90.6653 41.9439 90.8053 41.9439 90.964C41.9439 91.1787 41.9952 91.3747 42.0979 91.552C42.2005 91.7293 42.3639 91.818 42.5879 91.818C42.8679 91.818 43.1245 91.7387 43.3579 91.58C43.5912 91.4213 43.8059 91.23 44.0019 91.006C44.1979 90.7727 44.3705 90.558 44.5199 90.362C44.5852 90.2687 44.6505 90.222 44.7159 90.222C44.7532 90.222 44.7719 90.2407 44.7719 90.278C44.7719 90.2967 44.7672 90.32 44.7579 90.348C44.7485 90.3667 44.7392 90.3853 44.7299 90.404C44.5712 90.628 44.3892 90.8707 44.1839 91.132C43.9785 91.3933 43.7452 91.6173 43.4839 91.804C43.2225 91.9907 42.9192 92.084 42.5739 92.084ZM42.0979 90.264C42.3405 90.1613 42.5925 89.9793 42.8539 89.718C43.1619 89.4193 43.3159 89.158 43.3159 88.934C43.3159 88.822 43.2599 88.766 43.1479 88.766C42.9985 88.766 42.7932 88.9807 42.5319 89.41C42.2985 89.7647 42.1539 90.0493 42.0979 90.264ZM45.5866 92.322C45.1479 92.322 44.7513 92.1633 44.3966 91.846C44.0326 91.5193 43.8506 91.146 43.8506 90.726C43.8506 90.4553 43.9253 90.32 44.0746 90.32C44.1679 90.32 44.2659 90.3853 44.3686 90.516C44.4993 90.404 44.7326 90.054 45.0686 89.466C45.2179 89.214 45.3813 88.9573 45.5586 88.696C45.7359 88.4253 45.9273 88.2013 46.1326 88.024C46.3379 87.8373 46.5526 87.744 46.7766 87.744C46.9539 87.744 47.1033 87.786 47.2246 87.87C47.3646 87.954 47.4346 88.0567 47.4346 88.178C47.4346 88.2527 47.3273 88.29 47.1126 88.29C46.9073 88.29 46.7113 88.3553 46.5246 88.486C46.3473 88.626 46.2586 88.7987 46.2586 89.004C46.2586 89.0787 46.2726 89.158 46.3006 89.242L46.6506 90.152C46.7253 90.3293 46.7719 90.502 46.7906 90.67C46.8186 90.8287 46.8326 90.9733 46.8326 91.104C47.3739 91.02 47.8359 90.7447 48.2186 90.278C48.2373 90.25 48.2606 90.236 48.2886 90.236C48.3446 90.236 48.3726 90.2733 48.3726 90.348C48.3726 90.3667 48.3679 90.3853 48.3586 90.404C48.3586 90.4227 48.3539 90.4413 48.3446 90.46C48.0366 90.9453 47.5186 91.258 46.7906 91.398C46.7626 91.5473 46.7113 91.678 46.6366 91.79C46.5619 91.902 46.4733 91.9953 46.3706 92.07C46.1373 92.238 45.8759 92.322 45.5866 92.322ZM46.3426 91.174V91.034C46.3426 90.9313 46.3193 90.7913 46.2726 90.614C46.2353 90.4367 46.1746 90.208 46.0906 89.928C46.0066 89.648 45.9413 89.396 45.8946 89.172C45.8573 88.9387 45.8433 88.7893 45.8526 88.724C45.6099 89.116 45.3673 89.4893 45.1246 89.844C44.8913 90.1893 44.6813 90.4693 44.4946 90.684C44.7839 90.824 45.0919 90.936 45.4186 91.02C45.7453 91.104 46.0533 91.1553 46.3426 91.174ZM45.4046 91.93C45.5913 91.93 45.7733 91.8973 45.9506 91.832C46.1373 91.7573 46.2633 91.6267 46.3286 91.44C45.9086 91.44 45.5166 91.398 45.1526 91.314C44.7979 91.23 44.5133 91.0993 44.2986 90.922L44.2146 91.006C44.4666 91.622 44.8633 91.93 45.4046 91.93ZM49.405 88.43C49.181 88.43 49.069 88.318 49.069 88.094C49.069 87.982 49.111 87.884 49.195 87.8C49.2883 87.7067 49.3957 87.66 49.517 87.66C49.741 87.66 49.853 87.772 49.853 87.996C49.853 88.108 49.811 88.206 49.727 88.29C49.6337 88.3833 49.5263 88.43 49.405 88.43ZM48.593 92.238C48.0797 92.238 47.823 91.9627 47.823 91.412C47.823 91.1507 47.9163 90.768 48.103 90.264C48.187 90.0307 48.271 89.8347 48.355 89.676C48.4483 89.508 48.5417 89.354 48.635 89.214C48.691 89.13 48.7563 89.088 48.831 89.088C48.9057 89.088 48.9803 89.1253 49.055 89.2C49.1017 89.2467 49.125 89.3073 49.125 89.382C49.125 89.4473 49.1063 89.5127 49.069 89.578C48.8637 89.8953 48.6957 90.2173 48.565 90.544C48.4343 90.8613 48.369 91.146 48.369 91.398C48.369 91.734 48.4903 91.902 48.733 91.902C48.8637 91.902 49.013 91.8693 49.181 91.804C49.349 91.7293 49.517 91.6173 49.685 91.468C49.797 91.3653 49.9137 91.2487 50.035 91.118C50.1657 90.9873 50.2963 90.8333 50.427 90.656C50.6697 90.3573 50.791 90.208 50.791 90.208C50.8377 90.208 50.861 90.2453 50.861 90.32C50.861 90.3947 50.8283 90.4693 50.763 90.544C49.9137 91.6733 49.1903 92.238 48.593 92.238ZM47.9869 97.684C47.5296 97.684 47.1563 97.5533 46.8669 97.292C46.5589 97.0213 46.4049 96.6713 46.4049 96.242C46.4049 95.2433 47.1143 94.2867 48.5329 93.372C49.7369 92.5973 50.9036 92.1213 52.0329 91.944C52.0703 91.7667 52.1123 91.5427 52.1589 91.272C52.2149 91.0013 52.2803 90.6887 52.3549 90.334C51.7203 91.4447 51.1649 92 50.6889 92C50.3996 92 50.2549 91.8413 50.2549 91.524C50.2549 91.048 50.4883 90.4647 50.9549 89.774C51.4123 89.0927 51.8649 88.6727 52.3129 88.514C52.3969 88.486 52.4763 88.4627 52.5509 88.444C52.6349 88.4253 52.7096 88.416 52.7749 88.416C52.9243 88.416 53.0829 88.458 53.2509 88.542C53.3256 88.5793 53.3909 88.626 53.4469 88.682C53.5029 88.7287 53.5309 88.7847 53.5309 88.85C53.5309 88.8873 53.4889 88.92 53.4049 88.948C53.3209 88.976 53.2649 89.018 53.2369 89.074L53.0829 89.788C53.0363 90.0213 52.9663 90.32 52.8729 90.684C52.7889 91.0387 52.6956 91.454 52.5929 91.93H52.6489C53.1436 91.93 53.3909 92.0373 53.3909 92.252C53.3909 92.308 53.3723 92.336 53.3349 92.336C53.3349 92.336 53.2976 92.3127 53.2229 92.266C53.1483 92.2193 53.0129 92.196 52.8169 92.196C52.7703 92.196 52.7236 92.196 52.6769 92.196C52.6303 92.196 52.5836 92.2007 52.5369 92.21C52.3596 92.91 52.1589 93.5307 51.9349 94.072C51.7109 94.6227 51.4683 95.0893 51.2069 95.472C50.1989 96.9467 49.1256 97.684 47.9869 97.684ZM50.9269 91.58C51.0296 91.58 51.1509 91.524 51.2909 91.412C51.4309 91.2907 51.5756 91.132 51.7249 90.936C51.9489 90.6373 52.1589 90.32 52.3549 89.984C52.5509 89.648 52.7236 89.284 52.8729 88.892C52.8449 88.8827 52.8029 88.878 52.7469 88.878C52.3643 88.878 51.9769 89.116 51.5849 89.592C51.0156 90.2733 50.7309 90.838 50.7309 91.286C50.7309 91.482 50.7963 91.58 50.9269 91.58ZM48.0429 97.488C48.6309 97.488 49.2003 97.2453 49.7509 96.76C50.1896 96.3867 50.5863 95.8967 50.9409 95.29C51.4356 94.4407 51.7949 93.4093 52.0189 92.196C51.4123 92.2893 50.6796 92.5553 49.8209 92.994C49.3916 93.2087 49.0136 93.4233 48.6869 93.638C48.3603 93.8527 48.0849 94.0673 47.8609 94.282C47.1609 94.954 46.8109 95.6213 46.8109 96.284C46.8109 96.648 46.9229 96.9373 47.1469 97.152C47.3896 97.376 47.6883 97.488 48.0429 97.488ZM56.2186 92.084C55.6866 92.084 55.4206 91.748 55.4206 91.076C55.4206 90.7773 55.4673 90.488 55.5606 90.208C55.6633 89.928 55.7799 89.6713 55.9106 89.438C55.5839 89.7273 55.2386 90.0867 54.8746 90.516C54.5199 90.936 54.1699 91.4073 53.8246 91.93C53.7686 92.014 53.7266 92.056 53.6986 92.056C53.6146 92.056 53.5726 91.972 53.5726 91.804C53.5726 91.7667 53.5819 91.7293 53.6006 91.692C53.7033 91.44 53.8059 91.1507 53.9086 90.824C54.0113 90.488 54.1139 90.096 54.2166 89.648C54.2353 89.5547 54.2539 89.4613 54.2726 89.368C54.2913 89.2747 54.3193 89.1533 54.3566 89.004C54.3753 88.948 54.4406 88.8827 54.5526 88.808C54.6459 88.7427 54.7393 88.71 54.8326 88.71C54.8979 88.71 54.9306 88.738 54.9306 88.794C54.9306 88.8407 54.8746 89.0413 54.7626 89.396C54.6506 89.7507 54.4873 90.2593 54.2726 90.922C54.3286 90.8473 54.4453 90.712 54.6226 90.516C54.7999 90.3107 55.0333 90.0493 55.3226 89.732L56.1906 88.78C56.2559 88.7147 56.3306 88.682 56.4146 88.682C56.6293 88.682 56.7366 88.7893 56.7366 89.004C56.7366 89.0507 56.7179 89.1067 56.6806 89.172C56.1579 90.0307 55.8966 90.712 55.8966 91.216C55.8966 91.5707 56.0646 91.748 56.4006 91.748C56.6433 91.748 56.9233 91.6127 57.2406 91.342C57.3713 91.2393 57.4833 91.1273 57.5766 91.006C57.6793 90.8753 57.7866 90.7353 57.8986 90.586C58.0946 90.3153 58.2066 90.18 58.2346 90.18C58.2626 90.18 58.2766 90.208 58.2766 90.264C58.2766 90.32 58.2486 90.3993 58.1926 90.502C57.5579 91.5567 56.8999 92.084 56.2186 92.084ZM58.9391 92.084C58.6311 92.084 58.3604 91.9953 58.1271 91.818C57.8938 91.6407 57.7771 91.342 57.7771 90.922C57.7771 90.67 57.8331 90.3993 57.9451 90.11C58.0571 89.8113 58.2064 89.5313 58.3931 89.27C58.5891 89.0087 58.8038 88.794 59.0371 88.626C59.2704 88.458 59.5084 88.374 59.7511 88.374C59.8444 88.374 59.9238 88.4067 59.9891 88.472C60.0638 88.5373 60.1011 88.6353 60.1011 88.766C60.1011 89.0553 59.8818 89.4053 59.4431 89.816C59.2658 89.984 59.0791 90.1333 58.8831 90.264C58.6964 90.3947 58.5238 90.488 58.3651 90.544C58.3278 90.6653 58.3091 90.8053 58.3091 90.964C58.3091 91.1787 58.3604 91.3747 58.4631 91.552C58.5658 91.7293 58.7291 91.818 58.9531 91.818C59.2331 91.818 59.4898 91.7387 59.7231 91.58C59.9564 91.4213 60.1711 91.23 60.3671 91.006C60.5631 90.7727 60.7358 90.558 60.8851 90.362C60.9504 90.2687 61.0158 90.222 61.0811 90.222C61.1184 90.222 61.1371 90.2407 61.1371 90.278C61.1371 90.2967 61.1324 90.32 61.1231 90.348C61.1138 90.3667 61.1044 90.3853 61.0951 90.404C60.9364 90.628 60.7544 90.8707 60.5491 91.132C60.3438 91.3933 60.1104 91.6173 59.8491 91.804C59.5878 91.9907 59.2844 92.084 58.9391 92.084ZM58.4631 90.264C58.7058 90.1613 58.9578 89.9793 59.2191 89.718C59.5271 89.4193 59.6811 89.158 59.6811 88.934C59.6811 88.822 59.6251 88.766 59.5131 88.766C59.3638 88.766 59.1584 88.9807 58.8971 89.41C58.6638 89.7647 58.5191 90.0493 58.4631 90.264ZM63.0158 92.224C62.6985 92.224 62.4745 92.14 62.3438 91.972C62.2225 91.804 62.1618 91.5893 62.1618 91.328C62.1618 91.1133 62.1945 90.8893 62.2598 90.656C62.3345 90.4133 62.4232 90.1893 62.5258 89.984C62.6285 89.7787 62.7172 89.6153 62.7918 89.494C62.7638 89.5033 62.7358 89.5127 62.7078 89.522C62.6798 89.522 62.6472 89.522 62.6098 89.522C62.4792 89.522 62.3345 89.4753 62.1758 89.382C62.0078 89.27 61.9238 89.1533 61.9238 89.032C61.8678 89.1627 61.7885 89.312 61.6858 89.48C61.5925 89.648 61.4805 89.83 61.3498 90.026C61.0045 90.5673 60.7758 90.838 60.6638 90.838C60.6265 90.838 60.6078 90.8193 60.6078 90.782C60.6078 90.7447 60.6358 90.6887 60.6918 90.614C60.8692 90.3713 61.0465 90.0913 61.2238 89.774C61.4105 89.4567 61.5972 89.102 61.7838 88.71C61.7745 88.6633 61.7652 88.6167 61.7558 88.57C61.7558 88.5233 61.7558 88.4673 61.7558 88.402C61.7558 88.1873 61.7978 87.94 61.8818 87.66C61.9845 87.3053 62.1105 87.128 62.2598 87.128C62.3532 87.128 62.4418 87.212 62.5258 87.38C62.5538 87.4453 62.5772 87.5107 62.5958 87.576C62.6145 87.632 62.6238 87.6927 62.6238 87.758C62.6238 87.982 62.4325 88.3227 62.0498 88.78C62.1338 89.0693 62.2972 89.214 62.5398 89.214C62.7172 89.214 62.8805 89.1253 63.0298 88.948C63.1885 88.7613 63.3005 88.668 63.3658 88.668C63.4498 88.668 63.5245 88.7007 63.5898 88.766C63.6552 88.8313 63.6878 88.9153 63.6878 89.018C63.6878 89.0087 63.6272 89.0927 63.5058 89.27C63.3938 89.4473 63.2632 89.6947 63.1138 90.012C62.9645 90.3293 62.8572 90.6 62.7918 90.824C62.7358 91.048 62.7078 91.2487 62.7078 91.426C62.7078 91.7527 62.8618 91.916 63.1698 91.916C63.4685 91.916 63.8465 91.6873 64.3038 91.23C64.4532 91.0713 64.6258 90.8707 64.8218 90.628C65.0645 90.3293 65.1858 90.18 65.1858 90.18C65.2232 90.18 65.2418 90.208 65.2418 90.264C65.2418 90.3387 65.2138 90.418 65.1578 90.502C65.0272 90.7073 64.8825 90.9127 64.7238 91.118C64.5745 91.314 64.4345 91.4727 64.3038 91.594C63.8745 92.014 63.4452 92.224 63.0158 92.224Z" fill="black"/>
<path fill-rule="evenodd" clip-rule="evenodd" d="M72.5 111.5C72.5 124.203 62.2024 134.5 49.4999 134.5H49.4969H49.494H49.4911H49.4882H49.4852H49.4823H49.4794H49.4764H49.4735H49.4706H49.4676H49.4647H49.4618H49.4588H49.4559H49.453H49.45H49.4471H49.4442H49.4412H49.4383H49.4354H49.4324H49.4295H49.4266H49.4236H49.4207H49.4178H49.4149H49.4119H49.409H49.4061H49.4031H49.4002H49.3973H49.3943H49.3914H49.3885H49.3855H49.3826H49.3797H49.3767H49.3738H49.3709H49.3679H49.365H49.3621H49.3591H49.3562H49.3533H49.3504H49.3474H49.3445H49.3416H49.3386H49.3357H49.3328H49.3298H49.3269H49.324H49.321H49.3181H49.3152H49.3122H49.3093H49.3064H49.3035H49.3005H49.2976H49.2947H49.2917H49.2888H49.2859H49.2829H49.28H49.2771H49.2741H49.2712H49.2683H49.2653H49.2624H49.2595H49.2566H49.2536H49.2507H49.2478H49.2448H49.2419H49.239H49.236H49.2331H49.2302H49.2272H49.2243H49.2214H49.2185H49.2155H49.2126H49.2097H49.2067H49.2038H49.2009H49.1979H49.195H49.1921H49.1891H49.1862H49.1833H49.1803H49.1774H49.1745H49.1716H49.1686H49.1657H49.1628H49.1598H49.1569H49.154H49.151H49.1481H49.1452H49.1423H49.1393H49.1364H49.1335H49.1305H49.1276H49.1247H49.1217H49.1188H49.1159H49.1129H49.11H49.1071H49.1042H49.1012H49.0983H49.0954H49.0924H49.0895H49.0866H49.0836H49.0807H49.0778H49.0749H49.0719H49.069H49.0661H49.0631H49.0602H49.0573H49.0543H49.0514H49.0485H49.0455H49.0426H49.0397H49.0368H49.0338H49.0309H49.028H49.025H49.0221H49.0192H49.0162H49.0133H49.0104H49.0075H49.0045H49.0016H48.9987H48.9957H48.9928H48.9899H48.9869H48.984H48.9811H48.9782H48.9752H48.9723H48.9694H48.9664H48.9635H48.9606H48.9577H48.9547H48.9518H48.9489H48.9459H48.943H48.9401H48.9371H48.9342H48.9313H48.9284H48.9254H48.9225H48.9196H48.9166H48.9137H48.9108H48.9078H48.9049H48.902H48.8991H48.8961H48.8932H48.8903H48.8873H48.8844H48.8815H48.8785H48.8756H48.8727H48.8698H48.8668H48.8639H48.861H48.858H48.8551H48.8522H48.8493H48.8463H48.8434H48.8405H48.8375H48.8346H48.8317H48.8287H48.8258H48.8229H48.82H48.817H48.8141H48.8112H48.8082H48.8053H48.8024H48.7995H48.7965H48.7936H48.7907H48.7877H48.7848H48.7819H48.7789H48.776H48.7731H48.7702H48.7672H48.7643H48.7614H48.7584H48.7555H48.7526H48.7497H48.7467H48.7438H48.7409H48.7379H48.735H48.7321H48.7292H48.7262H48.7233H48.7204H48.7174H48.7145H48.7116H48.7086H48.7057H48.7028H48.6999H48.6969H48.694H48.6911H48.6881H48.6852H48.6823H48.6794H48.6764H48.6735H48.6706H48.6676H48.6647H48.6618H48.6589H48.6559H48.653H48.6501H48.6471H48.6442H48.6413H48.6384H48.6354H48.6325H48.6296H48.6266H48.6237H48.6208H48.6179H48.6149H48.612H48.6091H48.6061H48.6032H48.6003H48.5974H48.5944H48.5915H48.5886H48.5856H48.5827H48.5798H48.5768H48.5739H48.571H48.5681H48.5651H48.5622H48.5593H48.5563H48.5534H48.5505H48.5476H48.5446H48.5417H48.5388H48.5358H48.5329H48.53H48.5271H48.5241H48.5212H48.5183H48.5153H48.5124H48.5095H48.5066H48.5036H48.5007H48.4978H48.4948H48.4919H48.489H48.4861H48.4831H48.4802H48.4773H48.4743H48.4714H48.4685H48.4656H48.4626H48.4597H48.4568H48.4538H48.4509H48.448H48.4451H48.4421H48.4392H48.4363H48.4333H48.4304H48.4275H48.4246H48.4216H48.4187H48.4158H48.4128H48.4099H48.407H48.4041H48.4011H48.3982H48.3953H48.3923H48.3894H48.3865H48.3836H48.3806H48.3777H48.3748H48.3719H48.3689H48.366H48.3631H48.3601H48.3572H48.3543H48.3514H48.3484H48.3455H48.3426H48.3396H48.3367H48.3338H48.3309H48.3279H48.325H48.3221H48.3191H48.3162H48.3133H48.3104H48.3074H48.3045H48.3016H48.2986H48.2957H48.2928H48.2899H48.2869H48.284H48.2811H48.2781H48.2752H48.2723H48.2694H48.2664H48.2635H48.2606H48.2576H48.2547H48.2518H48.2489H48.2459H48.243H48.2401H48.2372H48.2342H48.2313H48.2284H48.2254H48.2225H48.2196H48.2167H48.2137H48.2108H48.2079H48.2049H48.202H48.1991H48.1962H48.1932H48.1903H48.1874H48.1844H48.1815H48.1786H48.1757H48.1727H48.1698H48.1669H48.1639H48.161H48.1581H48.1552H48.1522H48.1493H48.1464H48.1434H48.1405H48.1376H48.1347H48.1317H48.1288H48.1259H48.123H48.12H48.1171H48.1142H48.1112H48.1083H48.1054H48.1025H48.0995H48.0966H48.0937H48.0907H48.0878H48.0849H48.082H48.079H48.0761H48.0732H48.0702H48.0673H48.0644H48.0615H48.0585H48.0556H48.0527H48.0497H48.0468H48.0439H48.041H48.038H48.0351H48.0322H48.0293H48.0263H48.0234H48.0205H48.0175H48.0146H48.0117H48.0088H48.0058H48.0029H48C47.1715 134.5 46.5 133.828 46.5 133C46.5 132.172 47.1715 131.5 48 131.5H48.0029H48.0058H48.0088H48.0117H48.0146H48.0175H48.0205H48.0234H48.0263H48.0293H48.0322H48.0351H48.038H48.041H48.0439H48.0468H48.0497H48.0527H48.0556H48.0585H48.0615H48.0644H48.0673H48.0702H48.0732H48.0761H48.079H48.082H48.0849H48.0878H48.0907H48.0937H48.0966H48.0995H48.1025H48.1054H48.1083H48.1112H48.1142H48.1171H48.12H48.123H48.1259H48.1288H48.1317H48.1347H48.1376H48.1405H48.1434H48.1464H48.1493H48.1522H48.1552H48.1581H48.161H48.1639H48.1669H48.1698H48.1727H48.1757H48.1786H48.1815H48.1844H48.1874H48.1903H48.1932H48.1962H48.1991H48.202H48.2049H48.2079H48.2108H48.2137H48.2167H48.2196H48.2225H48.2254H48.2284H48.2313H48.2342H48.2372H48.2401H48.243H48.2459H48.2489H48.2518H48.2547H48.2576H48.2606H48.2635H48.2664H48.2694H48.2723H48.2752H48.2781H48.2811H48.284H48.2869H48.2899H48.2928H48.2957H48.2986H48.3016H48.3045H48.3074H48.3104H48.3133H48.3162H48.3191H48.3221H48.325H48.3279H48.3309H48.3338H48.3367H48.3396H48.3426H48.3455H48.3484H48.3514H48.3543H48.3572H48.3601H48.3631H48.366H48.3689H48.3719H48.3748H48.3777H48.3806H48.3836H48.3865H48.3894H48.3923H48.3953H48.3982H48.4011H48.4041H48.407H48.4099H48.4128H48.4158H48.4187H48.4216H48.4246H48.4275H48.4304H48.4333H48.4363H48.4392H48.4421H48.4451H48.448H48.4509H48.4538H48.4568H48.4597H48.4626H48.4656H48.4685H48.4714H48.4743H48.4773H48.4802H48.4831H48.4861H48.489H48.4919H48.4948H48.4978H48.5007H48.5036H48.5066H48.5095H48.5124H48.5153H48.5183H48.5212H48.5241H48.5271H48.53H48.5329H48.5358H48.5388H48.5417H48.5446H48.5476H48.5505H48.5534H48.5563H48.5593H48.5622H48.5651H48.5681H48.571H48.5739H48.5768H48.5798H48.5827H48.5856H48.5886H48.5915H48.5944H48.5974H48.6003H48.6032H48.6061H48.6091H48.612H48.6149H48.6179H48.6208H48.6237H48.6266H48.6296H48.6325H48.6354H48.6384H48.6413H48.6442H48.6471H48.6501H48.653H48.6559H48.6589H48.6618H48.6647H48.6676H48.6706H48.6735H48.6764H48.6794H48.6823H48.6852H48.6881H48.6911H48.694H48.6969H48.6999H48.7028H48.7057H48.7086H48.7116H48.7145H48.7174H48.7204H48.7233H48.7262H48.7292H48.7321H48.735H48.7379H48.7409H48.7438H48.7467H48.7497H48.7526H48.7555H48.7584H48.7614H48.7643H48.7672H48.7702H48.7731H48.776H48.7789H48.7819H48.7848H48.7877H48.7907H48.7936H48.7965H48.7995H48.8024H48.8053H48.8082H48.8112H48.8141H48.817H48.82H48.8229H48.8258H48.8287H48.8317H48.8346H48.8375H48.8405H48.8434H48.8463H48.8493H48.8522H48.8551H48.858H48.861H48.8639H48.8668H48.8698H48.8727H48.8756H48.8785H48.8815H48.8844H48.8873H48.8903H48.8932H48.8961H48.8991H48.902H48.9049H48.9078H48.9108H48.9137H48.9166H48.9196H48.9225H48.9254H48.9284H48.9313H48.9342H48.9371H48.9401H48.943H48.9459H48.9489H48.9518H48.9547H48.9577H48.9606H48.9635H48.9664H48.9694H48.9723H48.9752H48.9782H48.9811H48.984H48.9869H48.9899H48.9928H48.9957H48.9987H49.0016H49.0045H49.0075H49.0104H49.0133H49.0162H49.0192H49.0221H49.025H49.028H49.0309H49.0338H49.0368H49.0397H49.0426H49.0455H49.0485H49.0514H49.0543H49.0573H49.0602H49.0631H49.0661H49.069H49.0719H49.0749H49.0778H49.0807H49.0836H49.0866H49.0895H49.0924H49.0954H49.0983H49.1012H49.1042H49.1071H49.11H49.1129H49.1159H49.1188H49.1217H49.1247H49.1276H49.1305H49.1335H49.1364H49.1393H49.1423H49.1452H49.1481H49.151H49.154H49.1569H49.1598H49.1628H49.1657H49.1686H49.1716H49.1745H49.1774H49.1803H49.1833H49.1862H49.1891H49.1921H49.195H49.1979H49.2009H49.2038H49.2067H49.2097H49.2126H49.2155H49.2185H49.2214H49.2243H49.2272H49.2302H49.2331H49.236H49.239H49.2419H49.2448H49.2478H49.2507H49.2536H49.2566H49.2595H49.2624H49.2653H49.2683H49.2712H49.2741H49.2771H49.28H49.2829H49.2859H49.2888H49.2917H49.2947H49.2976H49.3005H49.3035H49.3064H49.3093H49.3122H49.3152H49.3181H49.321H49.324H49.3269H49.3298H49.3328H49.3357H49.3386H49.3416H49.3445H49.3474H49.3504H49.3533H49.3562H49.3591H49.3621H49.365H49.3679H49.3709H49.3738H49.3767H49.3797H49.3826H49.3855H49.3885H49.3914H49.3943H49.3973H49.4002H49.4031H49.4061H49.409H49.4119H49.4149H49.4178H49.4207H49.4236H49.4266H49.4295H49.4324H49.4354H49.4383H49.4412H49.4442H49.4471H49.45H49.453H49.4559H49.4588H49.4618H49.4647H49.4676H49.4706H49.4735H49.4764H49.4794H49.4823H49.4852H49.4882H49.4911H49.494H49.4969H49.4999C60.5456 131.5 69.5 122.546 69.5 111.5V25C69.5 13.6301 60.6743 4.32159 49.5 3.55151V3.6738V3.86169V4.04997V4.23862V4.42763V4.617V4.80675V4.99684V5.18729V5.3781V5.56925V5.76076V5.9526V6.14479V6.33731V6.53017V6.72337V6.91689V7.11073V7.3049V7.49939V7.69419V7.88931V8.08475V8.28049V8.47652V8.67287V8.86952V9.06646V9.26369V9.46122V9.65903V9.85712V10.0555V10.2542V10.4531V10.6523V10.8518V11.0515V11.2515V11.4518V11.6523V11.8531V12.0541V12.2554V12.4569V12.6586V12.8606V13.0629V13.2653V13.468V13.671V13.8741V14.0775V14.2811V14.4849V14.6889V14.8932V15.0976V15.3022V15.5071V15.7121V15.9174V16.1228V16.3284V16.5342V16.7402V16.9463V17.1527V17.3592V17.5659V17.7727V17.9798V18.1869V18.3943V18.6018V18.8094V19.0172V19.2252V19.4332V19.6415V19.8498V20.0583V20.267V20.4757V20.6846V20.8936V21.1028V21.312V21.5214V21.7309V21.9405V22.1501V22.3599V22.5698V22.7798V22.9899V23.2001V23.4103V23.6207V23.8311V24.0416V24.2522V24.4628V24.6736V24.8843V25.0952V25.3061V25.5171V25.7281V25.9392V26.1503V26.3615V26.5727V26.7839V26.9952V27.2066V27.4179V27.6293V27.8407V28.0521V28.2636V28.475V28.6865V28.898V29.1095V29.321V29.5325V29.744V29.9555V30.167V30.3784V30.5899V30.8013V31.0127V31.2241V31.4355V31.6469V31.8582V32.0694V32.2807V32.4919V32.703V32.9141V33.1252V33.3362V33.5471V33.758V33.9689V34.1796V34.3903V34.601V34.8115V35.022V35.2324V35.4427V35.6529V35.8631V36.0731V36.2831V36.4929V36.7027V36.9123V37.1219V37.3313V37.5406V37.7499V37.9589V38.1679V38.3768V38.5855V38.7941V39.0025V39.2108V39.419V39.6271V39.8349V40.0427V40.2503V40.4577V40.665V40.8721V41.0791V41.2859V41.4925V41.699V41.9052V42.1113V42.3173V42.523V42.7285V42.9339V43.1391V43.344V43.5488V43.7534V43.9577V44.1619V44.3658V44.5696V44.7731V44.9764V45.1794V45.3823V45.5849V45.7873V45.9894V46.1914V46.393V46.5945V46.7957V46.9966V47.1973V47.3977V47.5979V47.7978V47.9974V48.1968V48.3959V48.5947V48.7933V48.9916V49.1896V49.3873V49.5847V49.7818V49.9787V50.1752V50.3714V50.5674V50.763V50.9583V51.1533V51.348V51.5424V51.7364V51.9302V52.1236V52.3166V52.5094V52.7018V52.8938V53.0856V53.2769V53.468V53.6587V53.849V54.039V54.2286V54.4178V54.6067V54.7952V54.9833V55.1711V55.3585V55.5455V55.7321V55.9184V56.1042V56.2897V56.4747V56.6594V56.8436V57.0275V57.2109V57.394V57.5766V57.7588V57.9406V58.122V58.3029V58.4834V58.6635V58.8431V59.0223V59.2011V59.3794V59.5573V59.7347V59.9117V60.0882V60.2643V60.4399V60.6151V60.7897V60.9639V61.1377V61.3109V61.4837V61.656V61.8278V61.9991V62.1699V62.3403V62.5101V62.6794V62.8483V63.0166V63.1844V63.3517V63.5185V63.6848V63.8505V64.0158V64.1805V64.3447V64.5083V64.6714V64.834V64.996V65.1575V65.3184V65.4788V65.6386V65.7979V65.9566V66.1148V66.2723V66.4294V66.5858V66.7417V66.897V67.0517V67.2058V67.3594V67.5123V67.6647V67.8164V67.9676V68.1182V68.2681V68.4175V68.5662V68.7144V68.8619V69.0088V69.155V69.3007V69.4457V69.5901V69.7339V69.877V70.0195V70.1613V70.3025V70.443V70.5829V70.7222V70.8607V70.9986V71.1359V71.2725V71.4084V71.5436V71.6782V71.8121V71.9453V72.0778V72.2097V72.3408V72.4713V72.601V72.7301V72.8584V72.9861V73.113V73.2392V73.3647V73.4895V73.6136V73.7369V73.8596V73.9815V74.1026V74.223V74.3427V74.4617V74.5799V74.6973V74.814V74.93V75.0452V75.1596V75.2733V75.3862V75.4983V75.6097V75.7203V75.8301V75.9391V76.0474V76.1549V76.2616V76.3674V76.4725V76.5768V76.6803V76.783V76.8849V76.9859V77.0862V77.1857V77.2843V77.3821V77.479V77.5752V77.6705V77.765V77.8587V77.9515V78.0434V78.1345V78.2248V78.3142V78.4028V78.4905V78.5774V78.6633V78.7485V78.8327V78.9161V78.9986V79.0802V79.1609V79.2408V79.3197V79.3978V79.475V79.5513V79.6267V79.7012V79.7747V79.8474V79.9192V79.99V80.06V80.129V80.197V80.2642V80.3304V80.3957V80.4601V80.5235V80.586V80.6475V80.7081V80.7678V80.8265V80.8842V80.941V80.9968V81.0516V81.1055V81.1584V81.2103V81.2613V81.3113V81.3603V81.4083V81.4553V81.5013V81.5464V81.5904V81.6334V81.6755V81.7165V81.7565V81.7955V81.8335V81.8705V81.9064V81.9413V81.9752V82.0081V82.0399V82.0707V82.1005V82.1292V82.1568V82.1835V82.209V82.2335V82.257V82.2794V82.3007V82.321V82.3402V82.3583V82.3753V82.3913V82.4062V82.42V82.4327V82.4444V82.4549V82.4643V82.4727V82.4799V82.486V82.491V82.495V82.4978V82.4994C49.5 82.4998 49.5 82.5 48 82.5C46.5 82.5 46.5 82.4998 46.5 82.4994V82.4978V82.495V82.491V82.486V82.4799V82.4727V82.4643V82.4549V82.4444V82.4327V82.42V82.4062V82.3913V82.3753V82.3583V82.3402V82.321V82.3007V82.2794V82.257V82.2335V82.209V82.1835V82.1568V82.1292V82.1005V82.0707V82.0399V82.0081V81.9752V81.9413V81.9064V81.8705V81.8335V81.7955V81.7565V81.7165V81.6755V81.6334V81.5904V81.5464V81.5013V81.4553V81.4083V81.3603V81.3113V81.2613V81.2103V81.1584V81.1055V81.0516V80.9968V80.941V80.8842V80.8265V80.7678V80.7081V80.6475V80.586V80.5235V80.4601V80.3957V80.3304V80.2642V80.197V80.129V80.06V79.99V79.9192V79.8474V79.7747V79.7012V79.6267V79.5513V79.475V79.3978V79.3197V79.2408V79.1609V79.0802V78.9986V78.9161V78.8327V78.7485V78.6633V78.5774V78.4905V78.4028V78.3142V78.2248V78.1345V78.0434V77.9515V77.8587V77.765V77.6705V77.5752V77.479V77.3821V77.2843V77.1857V77.0862V76.9859V76.8849V76.783V76.6803V76.5768V76.4725V76.3674V76.2616V76.1549V76.0474V75.9391V75.8301V75.7203V75.6097V75.4983V75.3862V75.2733V75.1596V75.0452V74.93V74.814V74.6973V74.5799V74.4617V74.3427V74.223V74.1026V73.9815V73.8596V73.7369V73.6136V73.4895V73.3647V73.2392V73.113V72.9861V72.8584V72.7301V72.601V72.4713V72.3408V72.2097V72.0778V71.9453V71.8121V71.6782V71.5436V71.4084V71.2725V71.1359V70.9986V70.8607V70.7222V70.5829V70.443V70.3025V70.1613V70.0195V69.877V69.7339V69.5901V69.4457V69.3007V69.155V69.0088V68.8619V68.7144V68.5662V68.4175V68.2681V68.1182V67.9676V67.8164V67.6647V67.5123V67.3594V67.2058V67.0517V66.897V66.7417V66.5858V66.4294V66.2723V66.1148V65.9566V65.7979V65.6386V65.4788V65.3184V65.1575V64.996V64.834V64.6714V64.5083V64.3447V64.1805V64.0158V63.8505V63.6848V63.5185V63.3517V63.1844V63.0166V62.8483V62.6794V62.5101V62.3403V62.1699V61.9991V61.8278V61.656V61.4837V61.3109V61.1377V60.9639V60.7897V60.6151V60.4399V60.2643V60.0882V59.9117V59.7347V59.5573V59.3794V59.2011V59.0223V58.8431V58.6635V58.4834V58.3029V58.122V57.9406V57.7588V57.5766V57.394V57.2109V57.0275V56.8436V56.6594V56.4747V56.2897V56.1042V55.9184V55.7321V55.5455V55.3585V55.1711V54.9833V54.7952V54.6067V54.4178V54.2286V54.039V53.849V53.6587V53.468V53.2769V53.0856V52.8938V52.7018V52.5094V52.3166V52.1236V51.9302V51.7364V51.5424V51.348V51.1533V50.9583V50.763V50.5674V50.3714V50.1752V49.9787V49.7818V49.5847V49.3873V49.1896V48.9916V48.7933V48.5947V48.3959V48.1968V47.9974V47.7978V47.5979V47.3977V47.1973V46.9966V46.7957V46.5945V46.393V46.1914V45.9894V45.7873V45.5849V45.3823V45.1794V44.9764V44.7731V44.5696V44.3658V44.1619V43.9577V43.7534V43.5488V43.344V43.1391V42.9339V42.7285V42.523V42.3173V42.1113V41.9052V41.699V41.4925V41.2859V41.0791V40.8721V40.665V40.4577V40.2503V40.0427V39.8349V39.6271V39.419V39.2108V39.0025V38.7941V38.5855V38.3768V38.1679V37.9589V37.7499V37.5406V37.3313V37.1219V36.9123V36.7027V36.4929V36.2831V36.0731V35.8631V35.6529V35.4427V35.2324V35.022V34.8115V34.601V34.3903V34.1796V33.9689V33.758V33.5471V33.3362V33.1252V32.9141V32.703V32.4919V32.2807V32.0694V31.8582V31.6469V31.4355V31.2241V31.0127V30.8013V30.5899V30.3784V30.167V29.9555V29.744V29.5325V29.321V29.1095V28.898V28.6865V28.475V28.2636V28.0521V27.8407V27.6293V27.4179V27.2066V26.9952V26.7839V26.5727V26.3615V26.1503V25.9392V25.7281V25.5171V25.3061V25.0952V24.8843V24.6736V24.4628V24.2522V24.0416V23.8311V23.6207V23.4103V23.2001V22.9899V22.7798V22.5698V22.3599V22.1501V21.9405V21.7309V21.5214V21.312V21.1028V20.8936V20.6846V20.4757V20.267V20.0583V19.8498V19.6415V19.4332V19.2252V19.0172V18.8094V18.6018V18.3943V18.1869V17.9798V17.7727V17.5659V17.3592V17.1527V16.9463V16.7402V16.5342V16.3284V16.1228V15.9174V15.7121V15.5071V15.3022V15.0976V14.8932V14.6889V14.4849V14.2811V14.0775V13.8741V13.671V13.468V13.2653V13.0629V12.8606V12.6586V12.4569V12.2554V12.0541V11.8531V11.6523V11.4518V11.2515V11.0515V10.8518V10.6523V10.4531V10.2542V10.0555V9.85712V9.65903V9.46122V9.26369V9.06646V8.86952V8.67287V8.47652V8.28049V8.08475V7.88931V7.69419V7.49939V7.3049V7.11073V6.91689V6.72337V6.53017V6.33731V6.14479V5.9526V5.76076V5.56925V5.3781V5.18729V4.99684V4.80675V4.617V4.42763V4.23862V4.04997V3.86169V3.6738V3.55711C43.4678 3.78882 40.9754 4.68932 39.1708 5.59164C38.1245 6.11478 37.3156 6.6356 36.7751 7.01965C36.5051 7.21145 36.3031 7.36844 36.173 7.47355C36.1275 7.51029 36.0908 7.54065 36.0632 7.5639C36.0513 7.5739 36.0411 7.58257 36.0325 7.58987C36.0183 7.60202 36.0087 7.61037 36.0039 7.61463L36.0035 7.61494C36.0032 7.61518 36.0029 7.61543 36.0026 7.61567C36.0024 7.61588 36.0022 7.61609 36.0019 7.61629C36.0016 7.61662 36.0012 7.61693 36.0009 7.61725C36.0008 7.61735 36.0007 7.61744 36.0006 7.61754C35.3847 8.16897 34.4384 8.11825 33.8851 7.50345C33.3309 6.88769 33.3808 5.93925 33.9965 5.38506L35 6.5C33.9965 5.38506 33.997 5.38465 33.9975 5.38423L33.9985 5.38329L34.0009 5.38112L34.0072 5.37553L34.0253 5.35955C34.0399 5.34679 34.0593 5.32986 34.0837 5.30905C34.1324 5.26744 34.2007 5.21025 34.288 5.13973C34.4625 4.99875 34.7136 4.80418 35.0374 4.57411C35.6844 4.1144 36.6254 3.51022 37.8292 2.90836C40.2351 1.7054 43.7149 0.5 48 0.5C61.5309 0.5 72.5 11.469 72.5 25V111.5ZM48 82.5H46.5C46.5 83.3284 47.1715 84 48 84C48.8284 84 49.5 83.3284 49.5 82.5H48ZM25 110.5C24.1715 110.5 23.5 109.828 23.5 109V32L23.5 25.1924C23.5 18.9088 25.9962 12.8825 30.4393 8.43934C31.0251 7.85355 31.9749 7.85355 32.5607 8.43934C33.1464 9.02512 33.1464 9.97488 32.5607 10.5607C28.6801 14.4412 26.5 19.7044 26.5 25.1924L26.5 32V109C26.5 109.828 25.8284 110.5 25 110.5Z" fill="black"/>
</svg>
