<svg width="73" height="134" viewBox="0 0 73 134" fill="none" xmlns="http://www.w3.org/2000/svg">
<path d="M25 1.5V1.5C12.2975 1.5 2 11.7975 2 24.5V67M2 67V109.5C2 122.203 12.2975 132.5 25 132.5V132.5M2 67H12.5" stroke="white" stroke-width="3" stroke-linecap="round"/>
<path d="M25 132.5V132.5C37.7025 132.5 48 122.203 48 109.5V100.5" stroke="white" stroke-width="3" stroke-linecap="round"/>
<path d="M33.416 92.312C33.2387 92.312 33.0567 92.3073 32.87 92.298C32.6833 92.2887 32.4967 92.27 32.31 92.242C31.8993 92.1767 31.5167 92.074 31.162 91.934C30.8167 91.8033 30.5367 91.6307 30.322 91.416C30.1073 91.2013 30 90.9493 30 90.66C30 90.2213 30.126 89.8527 30.378 89.554C30.6393 89.2553 30.9707 89.022 31.372 88.854C31.7827 88.686 32.2073 88.588 32.646 88.56C32.7767 88.252 32.9307 87.9113 33.108 87.538C33.2853 87.1647 33.472 86.7913 33.668 86.418C33.864 86.0353 34.0507 85.69 34.228 85.382C34.4053 85.0647 34.5547 84.8173 34.676 84.64C34.816 84.4347 35.054 84.332 35.39 84.332C35.5207 84.332 35.586 84.3693 35.586 84.444C35.586 84.4907 35.5347 84.5747 35.432 84.696C35.0307 85.2373 34.6387 85.83 34.256 86.474C33.8733 87.118 33.4953 87.8133 33.122 88.56C35.642 88.616 37.3547 89.246 38.26 90.45C38.6707 90.1607 39.0393 89.834 39.366 89.47C39.702 89.106 39.968 88.714 40.164 88.294C40.36 87.874 40.458 87.4447 40.458 87.006C40.458 86.474 40.3133 86.0167 40.024 85.634C39.744 85.242 39.3613 84.9247 38.876 84.682C38.4 84.43 37.868 84.248 37.28 84.136C36.7013 84.0147 36.118 83.954 35.53 83.954C33.9527 83.954 32.5527 84.2993 31.33 84.99C31.2647 85.0273 31.204 85.046 31.148 85.046C31.0267 85.046 30.966 84.976 30.966 84.836C30.966 84.6213 31.1107 84.4393 31.4 84.29C31.6987 84.1313 32.0813 84.0007 32.548 83.898C33.024 83.786 33.5093 83.7067 34.004 83.66C34.508 83.604 34.9467 83.576 35.32 83.576C36.02 83.576 36.706 83.646 37.378 83.786C38.0593 83.926 38.6707 84.1407 39.212 84.43C39.7533 84.71 40.1873 85.0693 40.514 85.508C40.8407 85.9467 41.004 86.4693 41.004 87.076C41.004 87.58 40.8873 88.07 40.654 88.546C40.43 89.0127 40.1313 89.4467 39.758 89.848C39.3847 90.24 38.974 90.5853 38.526 90.884C38.5633 90.9587 38.582 91.024 38.582 91.08C38.582 91.2107 38.5353 91.276 38.442 91.276C38.4047 91.276 38.3393 91.2013 38.246 91.052C36.846 91.892 35.236 92.312 33.416 92.312ZM33.22 91.99C34.984 91.99 36.5613 91.5467 37.952 90.66C37.728 90.38 37.4293 90.1327 37.056 89.918C36.692 89.694 36.2907 89.5073 35.852 89.358C35.4133 89.2087 34.9747 89.0967 34.536 89.022C34.0973 88.938 33.6913 88.896 33.318 88.896C33.2527 88.896 33.192 88.896 33.136 88.896C33.08 88.896 33.0193 88.9007 32.954 88.91C32.394 90.0953 32.114 90.8933 32.114 91.304C32.114 91.3413 32.1187 91.3787 32.128 91.416C32.1467 91.4533 32.156 91.4907 32.156 91.528C32.156 91.6493 32.1 91.71 31.988 91.71C31.8387 91.71 31.764 91.584 31.764 91.332C31.764 90.912 32.002 90.1233 32.478 88.966C31.2367 89.1713 30.616 89.7453 30.616 90.688C30.616 91.052 30.8027 91.3367 31.176 91.542C31.5493 91.7473 31.9833 91.8873 32.478 91.962C32.6087 91.9713 32.7347 91.976 32.856 91.976C32.9773 91.9853 33.0987 91.99 33.22 91.99ZM42.5739 91.584C42.2659 91.584 41.9952 91.4953 41.7619 91.318C41.5285 91.1407 41.4119 90.842 41.4119 90.422C41.4119 90.17 41.4679 89.8993 41.5799 89.61C41.6919 89.3113 41.8412 89.0313 42.0279 88.77C42.2239 88.5087 42.4385 88.294 42.6719 88.126C42.9052 87.958 43.1432 87.874 43.3859 87.874C43.4792 87.874 43.5585 87.9067 43.6239 87.972C43.6985 88.0373 43.7359 88.1353 43.7359 88.266C43.7359 88.5553 43.5165 88.9053 43.0779 89.316C42.9005 89.484 42.7139 89.6333 42.5179 89.764C42.3312 89.8947 42.1585 89.988 41.9999 90.044C41.9625 90.1653 41.9439 90.3053 41.9439 90.464C41.9439 90.6787 41.9952 90.8747 42.0979 91.052C42.2005 91.2293 42.3639 91.318 42.5879 91.318C42.8679 91.318 43.1245 91.2387 43.3579 91.08C43.5912 90.9213 43.8059 90.73 44.0019 90.506C44.1979 90.2727 44.3705 90.058 44.5199 89.862C44.5852 89.7687 44.6505 89.722 44.7159 89.722C44.7532 89.722 44.7719 89.7407 44.7719 89.778C44.7719 89.7967 44.7672 89.82 44.7579 89.848C44.7485 89.8667 44.7392 89.8853 44.7299 89.904C44.5712 90.128 44.3892 90.3707 44.1839 90.632C43.9785 90.8933 43.7452 91.1173 43.4839 91.304C43.2225 91.4907 42.9192 91.584 42.5739 91.584ZM42.0979 89.764C42.3405 89.6613 42.5925 89.4793 42.8539 89.218C43.1619 88.9193 43.3159 88.658 43.3159 88.434C43.3159 88.322 43.2599 88.266 43.1479 88.266C42.9985 88.266 42.7932 88.4807 42.5319 88.91C42.2985 89.2647 42.1539 89.5493 42.0979 89.764ZM45.5866 91.822C45.1479 91.822 44.7513 91.6633 44.3966 91.346C44.0326 91.0193 43.8506 90.646 43.8506 90.226C43.8506 89.9553 43.9253 89.82 44.0746 89.82C44.1679 89.82 44.2659 89.8853 44.3686 90.016C44.4993 89.904 44.7326 89.554 45.0686 88.966C45.2179 88.714 45.3813 88.4573 45.5586 88.196C45.7359 87.9253 45.9273 87.7013 46.1326 87.524C46.3379 87.3373 46.5526 87.244 46.7766 87.244C46.9539 87.244 47.1033 87.286 47.2246 87.37C47.3646 87.454 47.4346 87.5567 47.4346 87.678C47.4346 87.7527 47.3273 87.79 47.1126 87.79C46.9073 87.79 46.7113 87.8553 46.5246 87.986C46.3473 88.126 46.2586 88.2987 46.2586 88.504C46.2586 88.5787 46.2726 88.658 46.3006 88.742L46.6506 89.652C46.7253 89.8293 46.7719 90.002 46.7906 90.17C46.8186 90.3287 46.8326 90.4733 46.8326 90.604C47.3739 90.52 47.8359 90.2447 48.2186 89.778C48.2373 89.75 48.2606 89.736 48.2886 89.736C48.3446 89.736 48.3726 89.7733 48.3726 89.848C48.3726 89.8667 48.3679 89.8853 48.3586 89.904C48.3586 89.9227 48.3539 89.9413 48.3446 89.96C48.0366 90.4453 47.5186 90.758 46.7906 90.898C46.7626 91.0473 46.7113 91.178 46.6366 91.29C46.5619 91.402 46.4733 91.4953 46.3706 91.57C46.1373 91.738 45.8759 91.822 45.5866 91.822ZM46.3426 90.674V90.534C46.3426 90.4313 46.3193 90.2913 46.2726 90.114C46.2353 89.9367 46.1746 89.708 46.0906 89.428C46.0066 89.148 45.9413 88.896 45.8946 88.672C45.8573 88.4387 45.8433 88.2893 45.8526 88.224C45.6099 88.616 45.3673 88.9893 45.1246 89.344C44.8913 89.6893 44.6813 89.9693 44.4946 90.184C44.7839 90.324 45.0919 90.436 45.4186 90.52C45.7453 90.604 46.0533 90.6553 46.3426 90.674ZM45.4046 91.43C45.5913 91.43 45.7733 91.3973 45.9506 91.332C46.1373 91.2573 46.2633 91.1267 46.3286 90.94C45.9086 90.94 45.5166 90.898 45.1526 90.814C44.7979 90.73 44.5133 90.5993 44.2986 90.422L44.2146 90.506C44.4666 91.122 44.8633 91.43 45.4046 91.43ZM49.405 87.93C49.181 87.93 49.069 87.818 49.069 87.594C49.069 87.482 49.111 87.384 49.195 87.3C49.2883 87.2067 49.3957 87.16 49.517 87.16C49.741 87.16 49.853 87.272 49.853 87.496C49.853 87.608 49.811 87.706 49.727 87.79C49.6337 87.8833 49.5263 87.93 49.405 87.93ZM48.593 91.738C48.0797 91.738 47.823 91.4627 47.823 90.912C47.823 90.6507 47.9163 90.268 48.103 89.764C48.187 89.5307 48.271 89.3347 48.355 89.176C48.4483 89.008 48.5417 88.854 48.635 88.714C48.691 88.63 48.7563 88.588 48.831 88.588C48.9057 88.588 48.9803 88.6253 49.055 88.7C49.1017 88.7467 49.125 88.8073 49.125 88.882C49.125 88.9473 49.1063 89.0127 49.069 89.078C48.8637 89.3953 48.6957 89.7173 48.565 90.044C48.4343 90.3613 48.369 90.646 48.369 90.898C48.369 91.234 48.4903 91.402 48.733 91.402C48.8637 91.402 49.013 91.3693 49.181 91.304C49.349 91.2293 49.517 91.1173 49.685 90.968C49.797 90.8653 49.9137 90.7487 50.035 90.618C50.1657 90.4873 50.2963 90.3333 50.427 90.156C50.6697 89.8573 50.791 89.708 50.791 89.708C50.8377 89.708 50.861 89.7453 50.861 89.82C50.861 89.8947 50.8283 89.9693 50.763 90.044C49.9137 91.1733 49.1903 91.738 48.593 91.738ZM47.9869 97.184C47.5296 97.184 47.1563 97.0533 46.8669 96.792C46.5589 96.5213 46.4049 96.1713 46.4049 95.742C46.4049 94.7433 47.1143 93.7867 48.5329 92.872C49.7369 92.0973 50.9036 91.6213 52.0329 91.444C52.0703 91.2667 52.1123 91.0427 52.1589 90.772C52.2149 90.5013 52.2803 90.1887 52.3549 89.834C51.7203 90.9447 51.1649 91.5 50.6889 91.5C50.3996 91.5 50.2549 91.3413 50.2549 91.024C50.2549 90.548 50.4883 89.9647 50.9549 89.274C51.4123 88.5927 51.8649 88.1727 52.3129 88.014C52.3969 87.986 52.4763 87.9627 52.5509 87.944C52.6349 87.9253 52.7096 87.916 52.7749 87.916C52.9243 87.916 53.0829 87.958 53.2509 88.042C53.3256 88.0793 53.3909 88.126 53.4469 88.182C53.5029 88.2287 53.5309 88.2847 53.5309 88.35C53.5309 88.3873 53.4889 88.42 53.4049 88.448C53.3209 88.476 53.2649 88.518 53.2369 88.574L53.0829 89.288C53.0363 89.5213 52.9663 89.82 52.8729 90.184C52.7889 90.5387 52.6956 90.954 52.5929 91.43H52.6489C53.1436 91.43 53.3909 91.5373 53.3909 91.752C53.3909 91.808 53.3723 91.836 53.3349 91.836C53.3349 91.836 53.2976 91.8127 53.2229 91.766C53.1483 91.7193 53.0129 91.696 52.8169 91.696C52.7703 91.696 52.7236 91.696 52.6769 91.696C52.6303 91.696 52.5836 91.7007 52.5369 91.71C52.3596 92.41 52.1589 93.0307 51.9349 93.572C51.7109 94.1227 51.4683 94.5893 51.2069 94.972C50.1989 96.4467 49.1256 97.184 47.9869 97.184ZM50.9269 91.08C51.0296 91.08 51.1509 91.024 51.2909 90.912C51.4309 90.7907 51.5756 90.632 51.7249 90.436C51.9489 90.1373 52.1589 89.82 52.3549 89.484C52.5509 89.148 52.7236 88.784 52.8729 88.392C52.8449 88.3827 52.8029 88.378 52.7469 88.378C52.3643 88.378 51.9769 88.616 51.5849 89.092C51.0156 89.7733 50.7309 90.338 50.7309 90.786C50.7309 90.982 50.7963 91.08 50.9269 91.08ZM48.0429 96.988C48.6309 96.988 49.2003 96.7453 49.7509 96.26C50.1896 95.8867 50.5863 95.3967 50.9409 94.79C51.4356 93.9407 51.7949 92.9093 52.0189 91.696C51.4123 91.7893 50.6796 92.0553 49.8209 92.494C49.3916 92.7087 49.0136 92.9233 48.6869 93.138C48.3603 93.3527 48.0849 93.5673 47.8609 93.782C47.1609 94.454 46.8109 95.1213 46.8109 95.784C46.8109 96.148 46.9229 96.4373 47.1469 96.652C47.3896 96.876 47.6883 96.988 48.0429 96.988ZM56.2186 91.584C55.6866 91.584 55.4206 91.248 55.4206 90.576C55.4206 90.2773 55.4673 89.988 55.5606 89.708C55.6633 89.428 55.7799 89.1713 55.9106 88.938C55.5839 89.2273 55.2386 89.5867 54.8746 90.016C54.5199 90.436 54.1699 90.9073 53.8246 91.43C53.7686 91.514 53.7266 91.556 53.6986 91.556C53.6146 91.556 53.5726 91.472 53.5726 91.304C53.5726 91.2667 53.5819 91.2293 53.6006 91.192C53.7033 90.94 53.8059 90.6507 53.9086 90.324C54.0113 89.988 54.1139 89.596 54.2166 89.148C54.2353 89.0547 54.2539 88.9613 54.2726 88.868C54.2913 88.7747 54.3193 88.6533 54.3566 88.504C54.3753 88.448 54.4406 88.3827 54.5526 88.308C54.6459 88.2427 54.7393 88.21 54.8326 88.21C54.8979 88.21 54.9306 88.238 54.9306 88.294C54.9306 88.3407 54.8746 88.5413 54.7626 88.896C54.6506 89.2507 54.4873 89.7593 54.2726 90.422C54.3286 90.3473 54.4453 90.212 54.6226 90.016C54.7999 89.8107 55.0333 89.5493 55.3226 89.232L56.1906 88.28C56.2559 88.2147 56.3306 88.182 56.4146 88.182C56.6293 88.182 56.7366 88.2893 56.7366 88.504C56.7366 88.5507 56.7179 88.6067 56.6806 88.672C56.1579 89.5307 55.8966 90.212 55.8966 90.716C55.8966 91.0707 56.0646 91.248 56.4006 91.248C56.6433 91.248 56.9233 91.1127 57.2406 90.842C57.3713 90.7393 57.4833 90.6273 57.5766 90.506C57.6793 90.3753 57.7866 90.2353 57.8986 90.086C58.0946 89.8153 58.2066 89.68 58.2346 89.68C58.2626 89.68 58.2766 89.708 58.2766 89.764C58.2766 89.82 58.2486 89.8993 58.1926 90.002C57.5579 91.0567 56.8999 91.584 56.2186 91.584ZM58.9391 91.584C58.6311 91.584 58.3604 91.4953 58.1271 91.318C57.8938 91.1407 57.7771 90.842 57.7771 90.422C57.7771 90.17 57.8331 89.8993 57.9451 89.61C58.0571 89.3113 58.2064 89.0313 58.3931 88.77C58.5891 88.5087 58.8038 88.294 59.0371 88.126C59.2704 87.958 59.5084 87.874 59.7511 87.874C59.8444 87.874 59.9238 87.9067 59.9891 87.972C60.0638 88.0373 60.1011 88.1353 60.1011 88.266C60.1011 88.5553 59.8818 88.9053 59.4431 89.316C59.2658 89.484 59.0791 89.6333 58.8831 89.764C58.6964 89.8947 58.5238 89.988 58.3651 90.044C58.3278 90.1653 58.3091 90.3053 58.3091 90.464C58.3091 90.6787 58.3604 90.8747 58.4631 91.052C58.5658 91.2293 58.7291 91.318 58.9531 91.318C59.2331 91.318 59.4898 91.2387 59.7231 91.08C59.9564 90.9213 60.1711 90.73 60.3671 90.506C60.5631 90.2727 60.7358 90.058 60.8851 89.862C60.9504 89.7687 61.0158 89.722 61.0811 89.722C61.1184 89.722 61.1371 89.7407 61.1371 89.778C61.1371 89.7967 61.1324 89.82 61.1231 89.848C61.1138 89.8667 61.1044 89.8853 61.0951 89.904C60.9364 90.128 60.7544 90.3707 60.5491 90.632C60.3438 90.8933 60.1104 91.1173 59.8491 91.304C59.5878 91.4907 59.2844 91.584 58.9391 91.584ZM58.4631 89.764C58.7058 89.6613 58.9578 89.4793 59.2191 89.218C59.5271 88.9193 59.6811 88.658 59.6811 88.434C59.6811 88.322 59.6251 88.266 59.5131 88.266C59.3638 88.266 59.1584 88.4807 58.8971 88.91C58.6638 89.2647 58.5191 89.5493 58.4631 89.764ZM63.0158 91.724C62.6985 91.724 62.4745 91.64 62.3438 91.472C62.2225 91.304 62.1618 91.0893 62.1618 90.828C62.1618 90.6133 62.1945 90.3893 62.2598 90.156C62.3345 89.9133 62.4232 89.6893 62.5258 89.484C62.6285 89.2787 62.7172 89.1153 62.7918 88.994C62.7638 89.0033 62.7358 89.0127 62.7078 89.022C62.6798 89.022 62.6472 89.022 62.6098 89.022C62.4792 89.022 62.3345 88.9753 62.1758 88.882C62.0078 88.77 61.9238 88.6533 61.9238 88.532C61.8678 88.6627 61.7885 88.812 61.6858 88.98C61.5925 89.148 61.4805 89.33 61.3498 89.526C61.0045 90.0673 60.7758 90.338 60.6638 90.338C60.6265 90.338 60.6078 90.3193 60.6078 90.282C60.6078 90.2447 60.6358 90.1887 60.6918 90.114C60.8692 89.8713 61.0465 89.5913 61.2238 89.274C61.4105 88.9567 61.5972 88.602 61.7838 88.21C61.7745 88.1633 61.7652 88.1167 61.7558 88.07C61.7558 88.0233 61.7558 87.9673 61.7558 87.902C61.7558 87.6873 61.7978 87.44 61.8818 87.16C61.9845 86.8053 62.1105 86.628 62.2598 86.628C62.3532 86.628 62.4418 86.712 62.5258 86.88C62.5538 86.9453 62.5772 87.0107 62.5958 87.076C62.6145 87.132 62.6238 87.1927 62.6238 87.258C62.6238 87.482 62.4325 87.8227 62.0498 88.28C62.1338 88.5693 62.2972 88.714 62.5398 88.714C62.7172 88.714 62.8805 88.6253 63.0298 88.448C63.1885 88.2613 63.3005 88.168 63.3658 88.168C63.4498 88.168 63.5245 88.2007 63.5898 88.266C63.6552 88.3313 63.6878 88.4153 63.6878 88.518C63.6878 88.5087 63.6272 88.5927 63.5058 88.77C63.3938 88.9473 63.2632 89.1947 63.1138 89.512C62.9645 89.8293 62.8572 90.1 62.7918 90.324C62.7358 90.548 62.7078 90.7487 62.7078 90.926C62.7078 91.2527 62.8618 91.416 63.1698 91.416C63.4685 91.416 63.8465 91.1873 64.3038 90.73C64.4532 90.5713 64.6258 90.3707 64.8218 90.128C65.0645 89.8293 65.1858 89.68 65.1858 89.68C65.2232 89.68 65.2418 89.708 65.2418 89.764C65.2418 89.8387 65.2138 89.918 65.1578 90.002C65.0272 90.2073 64.8825 90.4127 64.7238 90.618C64.5745 90.814 64.4345 90.9727 64.3038 91.094C63.8745 91.514 63.4452 91.724 63.0158 91.724Z" fill="white"/>
<path fill-rule="evenodd" clip-rule="evenodd" d="M72.5 111C72.5 123.703 62.2024 134 49.4999 134H49.4969H49.494H49.4911H49.4882H49.4852H49.4823H49.4794H49.4764H49.4735H49.4706H49.4676H49.4647H49.4618H49.4588H49.4559H49.453H49.45H49.4471H49.4442H49.4412H49.4383H49.4354H49.4324H49.4295H49.4266H49.4236H49.4207H49.4178H49.4149H49.4119H49.409H49.4061H49.4031H49.4002H49.3973H49.3943H49.3914H49.3885H49.3855H49.3826H49.3797H49.3767H49.3738H49.3709H49.3679H49.365H49.3621H49.3591H49.3562H49.3533H49.3504H49.3474H49.3445H49.3416H49.3386H49.3357H49.3328H49.3298H49.3269H49.324H49.321H49.3181H49.3152H49.3122H49.3093H49.3064H49.3035H49.3005H49.2976H49.2947H49.2917H49.2888H49.2859H49.2829H49.28H49.2771H49.2741H49.2712H49.2683H49.2653H49.2624H49.2595H49.2566H49.2536H49.2507H49.2478H49.2448H49.2419H49.239H49.236H49.2331H49.2302H49.2272H49.2243H49.2214H49.2185H49.2155H49.2126H49.2097H49.2067H49.2038H49.2009H49.1979H49.195H49.1921H49.1891H49.1862H49.1833H49.1803H49.1774H49.1745H49.1716H49.1686H49.1657H49.1628H49.1598H49.1569H49.154H49.151H49.1481H49.1452H49.1423H49.1393H49.1364H49.1335H49.1305H49.1276H49.1247H49.1217H49.1188H49.1159H49.1129H49.11H49.1071H49.1042H49.1012H49.0983H49.0954H49.0924H49.0895H49.0866H49.0836H49.0807H49.0778H49.0749H49.0719H49.069H49.0661H49.0631H49.0602H49.0573H49.0543H49.0514H49.0485H49.0455H49.0426H49.0397H49.0368H49.0338H49.0309H49.028H49.025H49.0221H49.0192H49.0162H49.0133H49.0104H49.0075H49.0045H49.0016H48.9987H48.9957H48.9928H48.9899H48.9869H48.984H48.9811H48.9782H48.9752H48.9723H48.9694H48.9664H48.9635H48.9606H48.9577H48.9547H48.9518H48.9489H48.9459H48.943H48.9401H48.9371H48.9342H48.9313H48.9284H48.9254H48.9225H48.9196H48.9166H48.9137H48.9108H48.9078H48.9049H48.902H48.8991H48.8961H48.8932H48.8903H48.8873H48.8844H48.8815H48.8785H48.8756H48.8727H48.8698H48.8668H48.8639H48.861H48.858H48.8551H48.8522H48.8493H48.8463H48.8434H48.8405H48.8375H48.8346H48.8317H48.8287H48.8258H48.8229H48.82H48.817H48.8141H48.8112H48.8082H48.8053H48.8024H48.7995H48.7965H48.7936H48.7907H48.7877H48.7848H48.7819H48.7789H48.776H48.7731H48.7702H48.7672H48.7643H48.7614H48.7584H48.7555H48.7526H48.7497H48.7467H48.7438H48.7409H48.7379H48.735H48.7321H48.7292H48.7262H48.7233H48.7204H48.7174H48.7145H48.7116H48.7086H48.7057H48.7028H48.6999H48.6969H48.694H48.6911H48.6881H48.6852H48.6823H48.6794H48.6764H48.6735H48.6706H48.6676H48.6647H48.6618H48.6589H48.6559H48.653H48.6501H48.6471H48.6442H48.6413H48.6384H48.6354H48.6325H48.6296H48.6266H48.6237H48.6208H48.6179H48.6149H48.612H48.6091H48.6061H48.6032H48.6003H48.5974H48.5944H48.5915H48.5886H48.5856H48.5827H48.5798H48.5768H48.5739H48.571H48.5681H48.5651H48.5622H48.5593H48.5563H48.5534H48.5505H48.5476H48.5446H48.5417H48.5388H48.5358H48.5329H48.53H48.5271H48.5241H48.5212H48.5183H48.5153H48.5124H48.5095H48.5066H48.5036H48.5007H48.4978H48.4948H48.4919H48.489H48.4861H48.4831H48.4802H48.4773H48.4743H48.4714H48.4685H48.4656H48.4626H48.4597H48.4568H48.4538H48.4509H48.448H48.4451H48.4421H48.4392H48.4363H48.4333H48.4304H48.4275H48.4246H48.4216H48.4187H48.4158H48.4128H48.4099H48.407H48.4041H48.4011H48.3982H48.3953H48.3923H48.3894H48.3865H48.3836H48.3806H48.3777H48.3748H48.3719H48.3689H48.366H48.3631H48.3601H48.3572H48.3543H48.3514H48.3484H48.3455H48.3426H48.3396H48.3367H48.3338H48.3309H48.3279H48.325H48.3221H48.3191H48.3162H48.3133H48.3104H48.3074H48.3045H48.3016H48.2986H48.2957H48.2928H48.2899H48.2869H48.284H48.2811H48.2781H48.2752H48.2723H48.2694H48.2664H48.2635H48.2606H48.2576H48.2547H48.2518H48.2489H48.2459H48.243H48.2401H48.2372H48.2342H48.2313H48.2284H48.2254H48.2225H48.2196H48.2167H48.2137H48.2108H48.2079H48.2049H48.202H48.1991H48.1962H48.1932H48.1903H48.1874H48.1844H48.1815H48.1786H48.1757H48.1727H48.1698H48.1669H48.1639H48.161H48.1581H48.1552H48.1522H48.1493H48.1464H48.1434H48.1405H48.1376H48.1347H48.1317H48.1288H48.1259H48.123H48.12H48.1171H48.1142H48.1112H48.1083H48.1054H48.1025H48.0995H48.0966H48.0937H48.0907H48.0878H48.0849H48.082H48.079H48.0761H48.0732H48.0702H48.0673H48.0644H48.0615H48.0585H48.0556H48.0527H48.0497H48.0468H48.0439H48.041H48.038H48.0351H48.0322H48.0293H48.0263H48.0234H48.0205H48.0175H48.0146H48.0117H48.0088H48.0058H48.0029H48C47.1715 134 46.5 133.328 46.5 132.5C46.5 131.672 47.1715 131 48 131H48.0029H48.0058H48.0088H48.0117H48.0146H48.0175H48.0205H48.0234H48.0263H48.0293H48.0322H48.0351H48.038H48.041H48.0439H48.0468H48.0497H48.0527H48.0556H48.0585H48.0615H48.0644H48.0673H48.0702H48.0732H48.0761H48.079H48.082H48.0849H48.0878H48.0907H48.0937H48.0966H48.0995H48.1025H48.1054H48.1083H48.1112H48.1142H48.1171H48.12H48.123H48.1259H48.1288H48.1317H48.1347H48.1376H48.1405H48.1434H48.1464H48.1493H48.1522H48.1552H48.1581H48.161H48.1639H48.1669H48.1698H48.1727H48.1757H48.1786H48.1815H48.1844H48.1874H48.1903H48.1932H48.1962H48.1991H48.202H48.2049H48.2079H48.2108H48.2137H48.2167H48.2196H48.2225H48.2254H48.2284H48.2313H48.2342H48.2372H48.2401H48.243H48.2459H48.2489H48.2518H48.2547H48.2576H48.2606H48.2635H48.2664H48.2694H48.2723H48.2752H48.2781H48.2811H48.284H48.2869H48.2899H48.2928H48.2957H48.2986H48.3016H48.3045H48.3074H48.3104H48.3133H48.3162H48.3191H48.3221H48.325H48.3279H48.3309H48.3338H48.3367H48.3396H48.3426H48.3455H48.3484H48.3514H48.3543H48.3572H48.3601H48.3631H48.366H48.3689H48.3719H48.3748H48.3777H48.3806H48.3836H48.3865H48.3894H48.3923H48.3953H48.3982H48.4011H48.4041H48.407H48.4099H48.4128H48.4158H48.4187H48.4216H48.4246H48.4275H48.4304H48.4333H48.4363H48.4392H48.4421H48.4451H48.448H48.4509H48.4538H48.4568H48.4597H48.4626H48.4656H48.4685H48.4714H48.4743H48.4773H48.4802H48.4831H48.4861H48.489H48.4919H48.4948H48.4978H48.5007H48.5036H48.5066H48.5095H48.5124H48.5153H48.5183H48.5212H48.5241H48.5271H48.53H48.5329H48.5358H48.5388H48.5417H48.5446H48.5476H48.5505H48.5534H48.5563H48.5593H48.5622H48.5651H48.5681H48.571H48.5739H48.5768H48.5798H48.5827H48.5856H48.5886H48.5915H48.5944H48.5974H48.6003H48.6032H48.6061H48.6091H48.612H48.6149H48.6179H48.6208H48.6237H48.6266H48.6296H48.6325H48.6354H48.6384H48.6413H48.6442H48.6471H48.6501H48.653H48.6559H48.6589H48.6618H48.6647H48.6676H48.6706H48.6735H48.6764H48.6794H48.6823H48.6852H48.6881H48.6911H48.694H48.6969H48.6999H48.7028H48.7057H48.7086H48.7116H48.7145H48.7174H48.7204H48.7233H48.7262H48.7292H48.7321H48.735H48.7379H48.7409H48.7438H48.7467H48.7497H48.7526H48.7555H48.7584H48.7614H48.7643H48.7672H48.7702H48.7731H48.776H48.7789H48.7819H48.7848H48.7877H48.7907H48.7936H48.7965H48.7995H48.8024H48.8053H48.8082H48.8112H48.8141H48.817H48.82H48.8229H48.8258H48.8287H48.8317H48.8346H48.8375H48.8405H48.8434H48.8463H48.8493H48.8522H48.8551H48.858H48.861H48.8639H48.8668H48.8698H48.8727H48.8756H48.8785H48.8815H48.8844H48.8873H48.8903H48.8932H48.8961H48.8991H48.902H48.9049H48.9078H48.9108H48.9137H48.9166H48.9196H48.9225H48.9254H48.9284H48.9313H48.9342H48.9371H48.9401H48.943H48.9459H48.9489H48.9518H48.9547H48.9577H48.9606H48.9635H48.9664H48.9694H48.9723H48.9752H48.9782H48.9811H48.984H48.9869H48.9899H48.9928H48.9957H48.9987H49.0016H49.0045H49.0075H49.0104H49.0133H49.0162H49.0192H49.0221H49.025H49.028H49.0309H49.0338H49.0368H49.0397H49.0426H49.0455H49.0485H49.0514H49.0543H49.0573H49.0602H49.0631H49.0661H49.069H49.0719H49.0749H49.0778H49.0807H49.0836H49.0866H49.0895H49.0924H49.0954H49.0983H49.1012H49.1042H49.1071H49.11H49.1129H49.1159H49.1188H49.1217H49.1247H49.1276H49.1305H49.1335H49.1364H49.1393H49.1423H49.1452H49.1481H49.151H49.154H49.1569H49.1598H49.1628H49.1657H49.1686H49.1716H49.1745H49.1774H49.1803H49.1833H49.1862H49.1891H49.1921H49.195H49.1979H49.2009H49.2038H49.2067H49.2097H49.2126H49.2155H49.2185H49.2214H49.2243H49.2272H49.2302H49.2331H49.236H49.239H49.2419H49.2448H49.2478H49.2507H49.2536H49.2566H49.2595H49.2624H49.2653H49.2683H49.2712H49.2741H49.2771H49.28H49.2829H49.2859H49.2888H49.2917H49.2947H49.2976H49.3005H49.3035H49.3064H49.3093H49.3122H49.3152H49.3181H49.321H49.324H49.3269H49.3298H49.3328H49.3357H49.3386H49.3416H49.3445H49.3474H49.3504H49.3533H49.3562H49.3591H49.3621H49.365H49.3679H49.3709H49.3738H49.3767H49.3797H49.3826H49.3855H49.3885H49.3914H49.3943H49.3973H49.4002H49.4031H49.4061H49.409H49.4119H49.4149H49.4178H49.4207H49.4236H49.4266H49.4295H49.4324H49.4354H49.4383H49.4412H49.4442H49.4471H49.45H49.453H49.4559H49.4588H49.4618H49.4647H49.4676H49.4706H49.4735H49.4764H49.4794H49.4823H49.4852H49.4882H49.4911H49.494H49.4969H49.4999C60.5456 131 69.5 122.046 69.5 111V24.5C69.5 13.1301 60.6743 3.82159 49.5 3.05151V3.1738V3.36169V3.54997V3.73862V3.92763V4.117V4.30675V4.49684V4.68729V4.8781V5.06925V5.26076V5.4526V5.64479V5.83731V6.03017V6.22337V6.41689V6.61073V6.8049V6.99939V7.19419V7.38931V7.58475V7.78049V7.97652V8.17287V8.36952V8.56646V8.76369V8.96122V9.15903V9.35712V9.5555V9.75416V9.95309V10.1523V10.3518V10.5515V10.7515V10.9518V11.1523V11.3531V11.5541V11.7554V11.9569V12.1586V12.3606V12.5629V12.7653V12.968V13.171V13.3741V13.5775V13.7811V13.9849V14.1889V14.3932V14.5976V14.8022V15.0071V15.2121V15.4174V15.6228V15.8284V16.0342V16.2402V16.4463V16.6527V16.8592V17.0659V17.2727V17.4798V17.6869V17.8943V18.1018V18.3094V18.5172V18.7252V18.9332V19.1415V19.3498V19.5583V19.767V19.9757V20.1846V20.3936V20.6028V20.812V21.0214V21.2309V21.4405V21.6501V21.8599V22.0698V22.2798V22.4899V22.7001V22.9103V23.1207V23.3311V23.5416V23.7522V23.9628V24.1736V24.3843V24.5952V24.8061V25.0171V25.2281V25.4392V25.6503V25.8615V26.0727V26.2839V26.4952V26.7066V26.9179V27.1293V27.3407V27.5521V27.7636V27.975V28.1865V28.398V28.6095V28.821V29.0325V29.244V29.4555V29.667V29.8784V30.0899V30.3013V30.5127V30.7241V30.9355V31.1469V31.3582V31.5694V31.7807V31.9919V32.203V32.4141V32.6252V32.8362V33.0471V33.258V33.4689V33.6796V33.8903V34.101V34.3115V34.522V34.7324V34.9427V35.1529V35.3631V35.5731V35.7831V35.9929V36.2027V36.4123V36.6219V36.8313V37.0406V37.2499V37.4589V37.6679V37.8768V38.0855V38.2941V38.5025V38.7108V38.919V39.1271V39.3349V39.5427V39.7503V39.9577V40.165V40.3721V40.5791V40.7859V40.9925V41.199V41.4052V41.6113V41.8173V42.023V42.2285V42.4339V42.6391V42.844V43.0488V43.2534V43.4577V43.6619V43.8658V44.0696V44.2731V44.4764V44.6794V44.8823V45.0849V45.2873V45.4894V45.6914V45.893V46.0945V46.2957V46.4966V46.6973V46.8977V47.0979V47.2978V47.4974V47.6968V47.8959V48.0947V48.2933V48.4916V48.6896V48.8873V49.0847V49.2818V49.4787V49.6752V49.8714V50.0674V50.263V50.4583V50.6533V50.848V51.0424V51.2364V51.4302V51.6236V51.8166V52.0094V52.2018V52.3938V52.5856V52.7769V52.968V53.1587V53.349V53.539V53.7286V53.9178V54.1067V54.2952V54.4833V54.6711V54.8585V55.0455V55.2321V55.4184V55.6042V55.7897V55.9747V56.1594V56.3436V56.5275V56.7109V56.894V57.0766V57.2588V57.4406V57.622V57.8029V57.9834V58.1635V58.3431V58.5223V58.7011V58.8794V59.0573V59.2347V59.4117V59.5882V59.7643V59.9399V60.1151V60.2897V60.4639V60.6377V60.8109V60.9837V61.156V61.3278V61.4991V61.6699V61.8403V62.0101V62.1794V62.3483V62.5166V62.6844V62.8517V63.0185V63.1848V63.3505V63.5158V63.6805V63.8447V64.0083V64.1714V64.334V64.496V64.6575V64.8184V64.9788V65.1386V65.2979V65.4566V65.6148V65.7723V65.9294V66.0858V66.2417V66.397V66.5517V66.7058V66.8594V67.0123V67.1647V67.3164V67.4676V67.6182V67.7681V67.9175V68.0662V68.2144V68.3619V68.5088V68.655V68.8007V68.9457V69.0901V69.2339V69.377V69.5195V69.6613V69.8025V69.943V70.0829V70.2222V70.3607V70.4986V70.6359V70.7725V70.9084V71.0436V71.1782V71.3121V71.4453V71.5778V71.7097V71.8408V71.9713V72.101V72.2301V72.3584V72.4861V72.613V72.7392V72.8647V72.9895V73.1136V73.2369V73.3596V73.4815V73.6026V73.723V73.8427V73.9617V74.0799V74.1973V74.314V74.43V74.5452V74.6596V74.7733V74.8862V74.9983V75.1097V75.2203V75.3301V75.4391V75.5474V75.6549V75.7615V75.8674V75.9725V76.0768V76.1803V76.283V76.3849V76.486V76.5862V76.6856V76.7843V76.8821V76.9791V77.0752V77.1705V77.265V77.3587V77.4515V77.5434V77.6345V77.7248V77.8142V77.9028V77.9905V78.0774V78.1633V78.2485V78.3327V78.4161V78.4986V78.5802V78.6609V78.7408V78.8198V78.8978V78.975V79.0513V79.1267V79.2012V79.2747V79.3474V79.4192V79.49V79.56V79.629V79.697V79.7642V79.8304V79.8957V79.9601V80.0235V80.086V80.1475V80.2081V80.2678V80.3265V80.3842V80.441V80.4968V80.5516V80.6055V80.6584V80.7103V80.7613V80.8113V80.8603V80.9083V80.9553V81.0013V81.0464V81.0904V81.1334V81.1755V81.2165V81.2565V81.2955V81.3335V81.3705V81.4064V81.4413V81.4752V81.5081V81.5399V81.5707V81.6005V81.6292V81.6568V81.6835V81.709V81.7335V81.757V81.7794V81.8007V81.821V81.8402V81.8583V81.8753V81.8913V81.9062V81.92V81.9327V81.9443V81.9549V81.9643V81.9727V81.9799V81.986V81.991V81.995V81.9978V81.9994C49.5 81.9998 49.5 82 48 82C46.5 82 46.5 81.9998 46.5 81.9994V81.9978V81.995V81.991V81.986V81.9799V81.9727V81.9643V81.9549V81.9443V81.9327V81.92V81.9062V81.8913V81.8753V81.8583V81.8402V81.821V81.8007V81.7794V81.757V81.7335V81.709V81.6835V81.6568V81.6292V81.6005V81.5707V81.5399V81.5081V81.4752V81.4413V81.4064V81.3705V81.3335V81.2955V81.2565V81.2165V81.1755V81.1334V81.0904V81.0464V81.0013V80.9553V80.9083V80.8603V80.8113V80.7613V80.7103V80.6584V80.6055V80.5516V80.4968V80.441V80.3842V80.3265V80.2678V80.2081V80.1475V80.086V80.0235V79.9601V79.8957V79.8304V79.7642V79.697V79.629V79.56V79.49V79.4192V79.3474V79.2747V79.2012V79.1267V79.0513V78.975V78.8978V78.8198V78.7408V78.6609V78.5802V78.4986V78.4161V78.3327V78.2485V78.1633V78.0774V77.9905V77.9028V77.8142V77.7248V77.6345V77.5434V77.4515V77.3587V77.265V77.1705V77.0752V76.9791V76.8821V76.7843V76.6856V76.5862V76.486V76.3849V76.283V76.1803V76.0768V75.9725V75.8674V75.7615V75.6549V75.5474V75.4391V75.3301V75.2203V75.1097V74.9983V74.8862V74.7733V74.6596V74.5452V74.43V74.314V74.1973V74.0799V73.9617V73.8427V73.723V73.6026V73.4815V73.3596V73.2369V73.1136V72.9895V72.8647V72.7392V72.613V72.4861V72.3584V72.2301V72.101V71.9713V71.8408V71.7097V71.5778V71.4453V71.3121V71.1782V71.0436V70.9084V70.7725V70.6359V70.4986V70.3607V70.2222V70.0829V69.943V69.8025V69.6613V69.5195V69.377V69.2339V69.0901V68.9457V68.8007V68.655V68.5088V68.3619V68.2144V68.0662V67.9175V67.7681V67.6182V67.4676V67.3164V67.1647V67.0123V66.8594V66.7058V66.5517V66.397V66.2417V66.0858V65.9294V65.7723V65.6148V65.4566V65.2979V65.1386V64.9788V64.8184V64.6575V64.496V64.334V64.1714V64.0083V63.8447V63.6805V63.5158V63.3505V63.1848V63.0185V62.8517V62.6844V62.5166V62.3483V62.1794V62.0101V61.8403V61.6699V61.4991V61.3278V61.156V60.9837V60.8109V60.6377V60.4639V60.2897V60.1151V59.9399V59.7643V59.5882V59.4117V59.2347V59.0573V58.8794V58.7011V58.5223V58.3431V58.1635V57.9834V57.8029V57.622V57.4406V57.2588V57.0766V56.894V56.7109V56.5275V56.3436V56.1594V55.9747V55.7897V55.6042V55.4184V55.2321V55.0455V54.8585V54.6711V54.4833V54.2952V54.1067V53.9178V53.7286V53.539V53.349V53.1587V52.968V52.7769V52.5856V52.3938V52.2018V52.0094V51.8166V51.6236V51.4302V51.2364V51.0424V50.848V50.6533V50.4583V50.263V50.0674V49.8714V49.6752V49.4787V49.2818V49.0847V48.8873V48.6896V48.4916V48.2933V48.0947V47.8959V47.6968V47.4974V47.2978V47.0979V46.8977V46.6973V46.4966V46.2957V46.0945V45.893V45.6914V45.4894V45.2873V45.0849V44.8823V44.6794V44.4764V44.2731V44.0696V43.8658V43.6619V43.4577V43.2534V43.0488V42.844V42.6391V42.4339V42.2285V42.023V41.8173V41.6113V41.4052V41.199V40.9925V40.7859V40.5791V40.3721V40.165V39.9577V39.7503V39.5427V39.3349V39.1271V38.919V38.7108V38.5025V38.2941V38.0855V37.8768V37.6679V37.4589V37.2499V37.0406V36.8313V36.6219V36.4123V36.2027V35.9929V35.7831V35.5731V35.3631V35.1529V34.9427V34.7324V34.522V34.3115V34.101V33.8903V33.6796V33.4689V33.258V33.0471V32.8362V32.6252V32.4141V32.203V31.9919V31.7807V31.5694V31.3582V31.1469V30.9355V30.7241V30.5127V30.3013V30.0899V29.8784V29.667V29.4555V29.244V29.0325V28.821V28.6095V28.398V28.1865V27.975V27.7636V27.5521V27.3407V27.1293V26.9179V26.7066V26.4952V26.2839V26.0727V25.8615V25.6503V25.4392V25.2281V25.0171V24.8061V24.5952V24.3843V24.1736V23.9628V23.7522V23.5416V23.3311V23.1207V22.9103V22.7001V22.4899V22.2798V22.0698V21.8599V21.6501V21.4405V21.2309V21.0214V20.812V20.6028V20.3936V20.1846V19.9757V19.767V19.5583V19.3498V19.1415V18.9332V18.7252V18.5172V18.3094V18.1018V17.8943V17.6869V17.4798V17.2727V17.0659V16.8592V16.6527V16.4463V16.2402V16.0342V15.8284V15.6228V15.4174V15.2121V15.0071V14.8022V14.5976V14.3932V14.1889V13.9849V13.7811V13.5775V13.3741V13.171V12.968V12.7653V12.5629V12.3606V12.1586V11.9569V11.7554V11.5541V11.3531V11.1523V10.9518V10.7515V10.5515V10.3518V10.1523V9.95309V9.75416V9.5555V9.35712V9.15903V8.96122V8.76369V8.56646V8.36952V8.17287V7.97652V7.78049V7.58475V7.38931V7.19419V6.99939V6.8049V6.61073V6.41689V6.22337V6.03017V5.83731V5.64479V5.4526V5.26076V5.06925V4.8781V4.68729V4.49684V4.30675V4.117V3.92763V3.73862V3.54997V3.36169V3.1738V3.05711C43.4678 3.28882 40.9754 4.18932 39.1708 5.09164C38.1245 5.61478 37.3156 6.1356 36.7751 6.51965C36.5051 6.71145 36.3031 6.86844 36.173 6.97355C36.1275 7.01029 36.0908 7.04065 36.0632 7.0639C36.0513 7.0739 36.0411 7.08257 36.0325 7.08987C36.0183 7.10202 36.0087 7.11037 36.0039 7.11463L36.0035 7.11494C36.0032 7.11518 36.0029 7.11543 36.0026 7.11567C36.0024 7.11588 36.0022 7.11609 36.0019 7.11629C36.0016 7.11662 36.0012 7.11693 36.0009 7.11725C36.0008 7.11735 36.0007 7.11744 36.0006 7.11754C35.3847 7.66897 34.4384 7.61825 33.8851 7.00345C33.3309 6.38769 33.3808 5.43925 33.9965 4.88506L35 6C33.9965 4.88506 33.997 4.88465 33.9975 4.88423L33.9985 4.88329L34.0009 4.88112L34.0072 4.87553L34.0253 4.85955C34.0399 4.84679 34.0593 4.82986 34.0837 4.80905C34.1324 4.76744 34.2007 4.71025 34.288 4.63973C34.4625 4.49875 34.7136 4.30418 35.0374 4.07411C35.6844 3.6144 36.6254 3.01022 37.8292 2.40836C40.2351 1.2054 43.7149 0 48 0C61.5309 0 72.5 10.969 72.5 24.5V111ZM48 82H46.5C46.5 82.8284 47.1715 83.5 48 83.5C48.8284 83.5 49.5 82.8284 49.5 82H48ZM25 110C24.1715 110 23.5 109.328 23.5 108.5V31.5L23.5 24.6924C23.5 18.4088 25.9962 12.3825 30.4393 7.93934C31.0251 7.35355 31.9749 7.35355 32.5607 7.93934C33.1464 8.52512 33.1464 9.47488 32.5607 10.0607C28.6801 13.9412 26.5 19.2044 26.5 24.6924L26.5 31.5V108.5C26.5 109.328 25.8284 110 25 110Z" fill="white"/>
</svg>
