<svg xmlns="http://www.w3.org/2000/svg" xmlns:xlink="http://www.w3.org/1999/xlink" width="90" height="152" viewBox="0 0 90 152">
  <defs>
    <filter id="Path_1" x="0" y="0" width="44" height="152" filterUnits="userSpaceOnUse">
      <feOffset dx="1" dy="3" input="SourceAlpha"/>
      <feGaussianBlur stdDeviation="3" result="blur"/>
      <feFlood flood-opacity="0.604"/>
      <feComposite operator="in" in2="blur"/>
      <feComposite in="SourceGraphic"/>
    </filter>
    <filter id="Path_2" x="23" y="99" width="44" height="53" filterUnits="userSpaceOnUse">
      <feOffset dx="1" dy="3" input="SourceAlpha"/>
      <feGaussianBlur stdDeviation="3" result="blur-2"/>
      <feFlood flood-opacity="0.604"/>
      <feComposite operator="in" in2="blur-2"/>
      <feComposite in="SourceGraphic"/>
    </filter>
    <filter id="Path_3" x="29.5" y="83.576" width="53.242" height="31.608" filterUnits="userSpaceOnUse">
      <feOffset dx="1" dy="3" input="SourceAlpha"/>
      <feGaussianBlur stdDeviation="3" result="blur-3"/>
      <feFlood flood-opacity="0.604"/>
      <feComposite operator="in" in2="blur-3"/>
      <feComposite in="SourceGraphic"/>
    </filter>
    <filter id="Path_4" x="23" y="0" width="67" height="152" filterUnits="userSpaceOnUse">
      <feOffset dx="1" dy="3" input="SourceAlpha"/>
      <feGaussianBlur stdDeviation="3" result="blur-4"/>
      <feFlood flood-opacity="0.604"/>
      <feComposite operator="in" in2="blur-4"/>
      <feComposite in="SourceGraphic"/>
    </filter>
  </defs>
  <g id="logoTop" transform="translate(7.5 6)">
    <g transform="matrix(1, 0, 0, 1, -7.5, -6)" filter="url(#Path_1)">
      <path id="Path_1-2" data-name="Path 1" d="M25,1.5h0a23,23,0,0,0-23,23V67m0,0v42.5a23,23,0,0,0,23,23h0M2,67H12.5" transform="translate(7.5 6)" fill="none" stroke="#fff" stroke-linecap="round" stroke-width="3"/>
    </g>
    <g transform="matrix(1, 0, 0, 1, -7.5, -6)" filter="url(#Path_2)">
      <path id="Path_2-2" data-name="Path 2" d="M25,132.5h0a23,23,0,0,0,23-23v-9" transform="translate(7.5 6)" fill="none" stroke="#fff" stroke-linecap="round" stroke-width="3"/>
    </g>
    <g transform="matrix(1, 0, 0, 1, -7.5, -6)" filter="url(#Path_3)">
      <path id="Path_3-2" data-name="Path 3" d="M33.416,92.312q-.266,0-.546-.014t-.56-.056a5.448,5.448,0,0,1-1.148-.308,2.338,2.338,0,0,1-.84-.518A1.035,1.035,0,0,1,30,90.66a1.657,1.657,0,0,1,.378-1.106,2.662,2.662,0,0,1,.994-.7,4.02,4.02,0,0,1,1.274-.294q.2-.462.462-1.022t.56-1.12q.294-.574.56-1.036t.448-.742a.8.8,0,0,1,.714-.308q.2,0,.2.112a.555.555,0,0,1-.154.252,20.988,20.988,0,0,0-1.176,1.778q-.574.966-1.134,2.086,3.78.084,5.138,1.89a6.542,6.542,0,0,0,1.106-.98,4.6,4.6,0,0,0,.8-1.176,3.016,3.016,0,0,0,.294-1.288,2.21,2.21,0,0,0-.434-1.372,3.057,3.057,0,0,0-1.148-.952,5.649,5.649,0,0,0-1.6-.546,8.508,8.508,0,0,0-1.75-.182,8.39,8.39,0,0,0-4.2,1.036.371.371,0,0,1-.182.056q-.182,0-.182-.21,0-.322.434-.546a4.558,4.558,0,0,1,1.148-.392A10.767,10.767,0,0,1,34,83.66a12.124,12.124,0,0,1,1.316-.084,10.064,10.064,0,0,1,2.058.21,6.754,6.754,0,0,1,1.834.644,3.722,3.722,0,0,1,1.3,1.078A2.551,2.551,0,0,1,41,87.076a3.3,3.3,0,0,1-.35,1.47,5.231,5.231,0,0,1-.9,1.3,7.251,7.251,0,0,1-1.232,1.036.452.452,0,0,1,.056.2q0,.2-.14.2-.056,0-.2-.224A9.2,9.2,0,0,1,33.416,92.312Zm-.2-.322a8.613,8.613,0,0,0,4.732-1.33,3.12,3.12,0,0,0-.9-.742,5.939,5.939,0,0,0-1.2-.56,8.52,8.52,0,0,0-1.316-.336,6.507,6.507,0,0,0-1.218-.126h-.182a1.3,1.3,0,0,0-.182.014,7.37,7.37,0,0,0-.84,2.394.462.462,0,0,0,.014.112.248.248,0,0,1,.028.112q0,.182-.168.182-.224,0-.224-.378a7.891,7.891,0,0,1,.714-2.366q-1.862.308-1.862,1.722a.944.944,0,0,0,.56.854,3.885,3.885,0,0,0,1.3.42q.2.014.378.014T33.22,91.99Zm9.354-.406a1.3,1.3,0,0,1-.812-.266,1.055,1.055,0,0,1-.35-.9,2.257,2.257,0,0,1,.168-.812,3.633,3.633,0,0,1,.448-.84,3.006,3.006,0,0,1,.644-.644,1.211,1.211,0,0,1,.714-.252.324.324,0,0,1,.238.1.37.37,0,0,1,.112.294,1.66,1.66,0,0,1-.658,1.05,4.214,4.214,0,0,1-.56.448,2.2,2.2,0,0,1-.518.28,1.428,1.428,0,0,0-.056.42,1.152,1.152,0,0,0,.154.588.524.524,0,0,0,.49.266,1.34,1.34,0,0,0,.77-.238A3.385,3.385,0,0,0,44,90.506q.294-.35.518-.644.1-.14.2-.14a.05.05,0,0,1,.056.056.231.231,0,0,1-.014.07l-.028.056q-.238.336-.546.728a3.409,3.409,0,0,1-.7.672A1.525,1.525,0,0,1,42.574,91.584Zm-.476-1.82a2.469,2.469,0,0,0,.756-.546,1.219,1.219,0,0,0,.462-.784.148.148,0,0,0-.168-.168q-.224,0-.616.644A3.165,3.165,0,0,0,42.1,89.764Zm3.489,2.058a1.741,1.741,0,0,1-1.19-.476,1.472,1.472,0,0,1-.546-1.12q0-.406.224-.406a.411.411,0,0,1,.294.2,5.192,5.192,0,0,0,.7-1.05q.224-.378.49-.77a3.186,3.186,0,0,1,.574-.672.95.95,0,0,1,.644-.28.768.768,0,0,1,.448.126.362.362,0,0,1,.21.308q0,.112-.322.112a1.01,1.01,0,0,0-.588.2.637.637,0,0,0-.266.518.754.754,0,0,0,.042.238l.35.91a1.866,1.866,0,0,1,.14.518,2.515,2.515,0,0,1,.042.434,2.192,2.192,0,0,0,1.386-.826.082.082,0,0,1,.07-.042q.084,0,.084.112a479531159865.241,479531159865.241,0,0,1-.028.112,2.227,2.227,0,0,1-1.554.938,1.045,1.045,0,0,1-.154.392,1.089,1.089,0,0,1-.266.28A1.31,1.31,0,0,1,45.587,91.822Zm.756-1.148v-.14a1.758,1.758,0,0,0-.07-.42q-.056-.266-.182-.686t-.2-.756a2.024,2.024,0,0,1-.042-.448q-.364.588-.728,1.12a8.873,8.873,0,0,1-.63.84,4.938,4.938,0,0,0,.924.336A5.025,5.025,0,0,0,46.343,90.674Zm-.938.756a1.568,1.568,0,0,0,.546-.1.63.63,0,0,0,.378-.392,5.223,5.223,0,0,1-1.176-.126,2.072,2.072,0,0,1-.854-.392l-.084.084A1.259,1.259,0,0,0,45.4,91.43Zm4-3.5a.3.3,0,0,1-.336-.336.4.4,0,0,1,.126-.294.443.443,0,0,1,.322-.14.3.3,0,0,1,.336.336.4.4,0,0,1-.126.294A.443.443,0,0,1,49.4,87.93Zm-.812,3.808q-.77,0-.77-.826a3.663,3.663,0,0,1,.28-1.148,4.618,4.618,0,0,1,.252-.588q.14-.252.28-.462a.237.237,0,0,1,.2-.126.323.323,0,0,1,.224.112.246.246,0,0,1,.07.182.392.392,0,0,1-.056.2,5.626,5.626,0,0,0-.5.966,2.276,2.276,0,0,0-.2.854q0,.5.364.5a1.258,1.258,0,0,0,.448-.1,1.977,1.977,0,0,0,.5-.336q.168-.154.35-.35a4.057,4.057,0,0,0,.392-.462l.364-.448q.07,0,.07.112a.342.342,0,0,1-.1.224Q49.489,91.738,48.593,91.738Zm-.606,5.446a1.607,1.607,0,0,1-1.12-.392,1.333,1.333,0,0,1-.462-1.05q0-1.5,2.128-2.87a9.142,9.142,0,0,1,3.5-1.428q.056-.266.126-.672t.2-.938Q51.4,91.5,50.689,91.5q-.434,0-.434-.476a3.345,3.345,0,0,1,.7-1.75,3.045,3.045,0,0,1,1.358-1.26q.126-.042.238-.07a1.044,1.044,0,0,1,.224-.028,1.068,1.068,0,0,1,.476.126.746.746,0,0,1,.2.14.212.212,0,0,1,.084.168q0,.056-.126.1a.271.271,0,0,0-.168.126l-.154.714q-.07.35-.21.9t-.28,1.246h.056q.742,0,.742.322,0,.084-.056.084l-.112-.07a.827.827,0,0,0-.406-.07h-.14a.716.716,0,0,0-.14.014,13.667,13.667,0,0,1-.6,1.862,7.49,7.49,0,0,1-.728,1.4Q49.695,97.184,47.987,97.184Zm2.94-6.1a.625.625,0,0,0,.364-.168,3.174,3.174,0,0,0,.434-.476,9.9,9.9,0,0,0,.63-.952,7.366,7.366,0,0,0,.518-1.092.426.426,0,0,0-.126-.014,1.6,1.6,0,0,0-1.162.714,2.955,2.955,0,0,0-.854,1.694Q50.731,91.08,50.927,91.08Zm-2.884,5.908a2.569,2.569,0,0,0,1.708-.728,5.644,5.644,0,0,0,1.19-1.47A9.571,9.571,0,0,0,52.019,91.7a7.585,7.585,0,0,0-2.2.8,11.169,11.169,0,0,0-1.134.644,5.789,5.789,0,0,0-.826.644,2.852,2.852,0,0,0-1.05,2,1.146,1.146,0,0,0,.336.868A1.272,1.272,0,0,0,48.043,96.988Zm8.176-5.4q-.8,0-.8-1.008a2.728,2.728,0,0,1,.14-.868,5.326,5.326,0,0,1,.35-.77,10.6,10.6,0,0,0-1.036,1.078,15.031,15.031,0,0,0-1.05,1.414q-.084.126-.126.126-.126,0-.126-.252a.248.248,0,0,1,.028-.112q.154-.378.308-.868t.308-1.176l.056-.28q.028-.14.084-.364a.474.474,0,0,1,.2-.2.486.486,0,0,1,.28-.1q.1,0,.1.084a4.4,4.4,0,0,1-.168.6q-.168.532-.49,1.526.084-.112.35-.406t.7-.784l.868-.952a.308.308,0,0,1,.224-.1.285.285,0,0,1,.322.322.354.354,0,0,1-.056.168,4.358,4.358,0,0,0-.784,2.044q0,.532.5.532a1.384,1.384,0,0,0,.84-.406,1.907,1.907,0,0,0,.336-.336q.154-.2.322-.42a1.724,1.724,0,0,1,.336-.406q.042,0,.042.084a.558.558,0,0,1-.084.238Q57.241,91.584,56.219,91.584Zm2.72,0a1.3,1.3,0,0,1-.812-.266,1.056,1.056,0,0,1-.35-.9,2.257,2.257,0,0,1,.168-.812,3.633,3.633,0,0,1,.448-.84,3.008,3.008,0,0,1,.644-.644,1.211,1.211,0,0,1,.714-.252.324.324,0,0,1,.238.1.37.37,0,0,1,.112.294,1.659,1.659,0,0,1-.658,1.05,4.208,4.208,0,0,1-.56.448,2.2,2.2,0,0,1-.518.28,1.431,1.431,0,0,0-.056.42,1.152,1.152,0,0,0,.154.588.525.525,0,0,0,.49.266,1.34,1.34,0,0,0,.77-.238,3.385,3.385,0,0,0,.644-.574q.294-.35.518-.644.1-.14.2-.14a.05.05,0,0,1,.056.056.231.231,0,0,1-.014.07L61.1,89.9q-.238.336-.546.728a3.407,3.407,0,0,1-.7.672A1.525,1.525,0,0,1,58.939,91.584Zm-.476-1.82a2.467,2.467,0,0,0,.756-.546,1.219,1.219,0,0,0,.462-.784.148.148,0,0,0-.168-.168q-.224,0-.616.644A3.168,3.168,0,0,0,58.463,89.764Zm4.553,1.96a.8.8,0,0,1-.672-.252,1.073,1.073,0,0,1-.182-.644,2.491,2.491,0,0,1,.1-.672,4.39,4.39,0,0,1,.266-.672q.154-.308.266-.49l-.084.028h-.1a.873.873,0,0,1-.434-.14q-.252-.168-.252-.35a3.594,3.594,0,0,1-.238.448q-.14.252-.336.546-.518.812-.686.812a.05.05,0,0,1-.056-.056.34.34,0,0,1,.084-.168,8.227,8.227,0,0,0,.532-.84q.28-.476.56-1.064l-.028-.14V87.9a2.624,2.624,0,0,1,.126-.742q.154-.532.378-.532.14,0,.266.252a1.632,1.632,0,0,1,.07.2.572.572,0,0,1,.028.182,2,2,0,0,1-.574,1.022q.126.434.49.434a.64.64,0,0,0,.49-.266q.238-.28.336-.28a.308.308,0,0,1,.224.1.341.341,0,0,1,.1.252,2.121,2.121,0,0,0-.182.252,7.153,7.153,0,0,0-.392.742,5.782,5.782,0,0,0-.322.812,2.511,2.511,0,0,0-.084.6q0,.49.462.49A1.873,1.873,0,0,0,64.3,90.73q.224-.238.518-.6l.364-.448q.056,0,.056.084a.434.434,0,0,1-.084.238q-.2.308-.434.616a3.768,3.768,0,0,1-.42.476A1.871,1.871,0,0,1,63.016,91.724Z" transform="translate(7.5 6)" fill="#fff"/>
    </g>
    <g transform="matrix(1, 0, 0, 1, -7.5, -6)" filter="url(#Path_4)">
      <path id="Path_4-2" data-name="Path 4" d="M72.5,111a23,23,0,0,1-23,23H48a1.5,1.5,0,0,1,0-3h1.5a20,20,0,0,0,20-20V24.5a21.5,21.5,0,0,0-20-21.448V82h-3V3.057a19.782,19.782,0,0,0-7.329,2.035,18.27,18.27,0,0,0-2.4,1.428c-.27.192-.472.349-.6.454l-.11.09-.031.026L36,7.115h0a1.5,1.5,0,0,1-2-2.232L35,6c-1-1.115-1-1.115-1-1.116h0l0,0,.006-.006.018-.016.058-.05c.049-.042.117-.1.2-.169.175-.141.426-.336.749-.566a21.267,21.267,0,0,1,2.792-1.666A22.735,22.735,0,0,1,48,0,24.5,24.5,0,0,1,72.5,24.5ZM48,82H46.5a1.5,1.5,0,0,0,3,0ZM25,110a1.5,1.5,0,0,1-1.5-1.5V24.692A23.693,23.693,0,0,1,30.439,7.939a1.5,1.5,0,1,1,2.121,2.121A20.692,20.692,0,0,0,26.5,24.692V108.5A1.5,1.5,0,0,1,25,110Z" transform="translate(7.5 6)" fill="#fff" fill-rule="evenodd"/>
    </g>
  </g>
</svg>
